<svg width="512" height="600" viewBox="0 0 512 600" fill="none" xmlns="http://www.w3.org/2000/svg">
<g clip-path="url(#clip0)">
<path d="M390.221 404.846C372.755 404.846 362.111 400.611 357.673 391.916C353.142 383.034 357.5 373.89 359.073 371.104C378.093 319.822 359.554 299.45 359.367 299.262C357.48 297.378 356.768 294.549 357.527 291.947C370.081 249.19 347.843 232.038 342.747 228.753L269.214 223.651C267.791 223.553 266.422 222.978 265.316 222.023L215.229 178.446C214.586 181.592 211.975 183.986 208.791 184.102C208.791 184.102 193.136 184.665 191.234 184.665C169.934 184.665 152.609 167.249 152.609 145.834C152.609 126.927 166.094 110.861 184.656 107.651C184.977 107.592 185.297 107.557 185.616 107.549L208.409 107.003C209.903 106.837 212.012 107.692 213.334 109.046C213.901 109.627 214.36 110.31 214.701 111.039C247.628 96.0733 281.541 88.4883 315.566 88.4883C363.254 88.4883 395.876 103.335 403.227 107.021C437.599 107.809 465.296 133.665 465.296 165.326C465.296 184.143 455.684 201.324 439.318 212.29L439.93 214.264C461.909 285.237 465.387 333.294 450.605 361.183C449.74 362.799 448.913 364.521 448.06 366.285C444.995 372.64 441.515 379.853 435.391 386.272C420.869 401.497 392.121 404.676 390.894 404.803C390.68 404.831 390.448 404.846 390.221 404.846H390.221V404.846ZM371.614 292.436C377.744 301.424 390.034 327.648 371.561 376.936C371.382 377.404 371.156 377.86 370.895 378.288C370.375 379.127 368.563 382.956 369.717 385.175C371.049 387.722 377.047 390.453 389.87 390.508C397.114 389.67 416.718 385.603 425.755 376.13C430.339 371.321 433.167 365.477 435.891 359.806C436.83 357.869 437.737 355.991 438.67 354.222C451.339 330.336 447.4 284.75 426.955 218.717L424.624 211.235C423.584 207.911 424.996 204.278 427.948 202.658C442.775 194.526 451.631 180.578 451.631 165.338C451.631 141.082 429.181 121.344 401.593 121.344C400.499 121.344 399.42 121.068 398.448 120.542C398.121 120.371 365.301 102.838 315.56 102.838C283.628 102.838 251.753 109.926 220.751 123.92C220.672 126.714 219.051 129.216 216.59 130.314C214.058 131.437 211.145 130.856 209.18 128.858C208.041 127.696 206.663 126.589 204.949 125.466C203.537 124.541 202.521 123.122 202.044 121.502L186.436 121.876C174.713 124.12 166.258 134.127 166.258 145.838C166.258 159.345 177.463 170.331 191.234 170.331C192.284 170.331 197.648 170.154 202.096 169.996C202.595 168.45 203.592 167.108 204.947 166.212C206.661 165.091 208.039 163.982 209.178 162.82C211.143 160.815 214.057 160.226 216.588 161.364C217.402 161.724 218.124 162.239 218.724 162.861L272.322 209.5L345.181 214.546C346.067 214.61 346.932 214.847 347.728 215.26C348.125 215.457 386.355 235.816 371.614 292.435H371.614L371.614 292.436Z" fill="#626262" stroke="#626262"/>
<path d="M312.879 168.517H277.625C273.851 168.517 270.799 165.316 270.799 161.349C270.799 157.387 273.851 154.182 277.625 154.182H312.879C316.651 154.182 319.702 157.387 319.702 161.349C319.702 165.316 316.649 168.517 312.879 168.517Z" fill="#626262" stroke="#626262"/>
<path d="M312.879 190.022H277.625C273.851 190.022 270.799 186.821 270.799 182.854C270.799 178.892 273.851 175.687 277.625 175.687H312.879C316.651 175.687 319.702 178.892 319.702 182.854C319.702 186.819 316.649 190.022 312.879 190.022Z" fill="#626262" stroke="#626262"/>
<path d="M312.879 211.527H277.625C273.851 211.527 270.799 208.324 270.799 204.359C270.799 200.397 273.851 197.192 277.625 197.192H312.879C316.651 197.192 319.702 200.397 319.702 204.359C319.702 208.324 316.649 211.527 312.879 211.527Z" fill="#626262" stroke="#626262"/>
<path d="M159.436 152.997H51.8605C48.0885 152.997 45.0371 149.796 45.0371 145.83C45.0371 141.867 48.0886 138.662 51.8605 138.662H159.434C163.208 138.662 166.258 141.867 166.258 145.83C166.26 149.796 163.21 152.997 159.436 152.997V152.997Z" fill="#626262" stroke="#626262"/>
<path d="M365.885 294.129C365.272 294.129 364.658 294.045 364.039 293.863L341.189 287.129C337.709 286.107 335.604 282.425 336.364 278.708C342.881 247.116 322.547 225.815 322.343 225.611C319.636 222.839 319.59 218.296 322.216 215.471C324.861 212.632 329.18 212.595 331.865 215.342C332.872 216.375 354.998 239.549 350.786 275.069L367.717 280.058C371.343 281.124 373.468 285.086 372.444 288.893C371.608 292.059 368.863 294.129 365.885 294.129V294.129V294.129Z" fill="#626262" stroke="#626262"/>
<path d="M115.555 408.059H74.0482C70.2743 408.059 67.2249 404.862 67.2249 400.891V43.0726C67.2249 39.1104 70.2743 35.905 74.0482 35.905H115.555C119.329 35.905 122.379 39.1104 122.379 43.0726V400.891C122.383 404.86 119.331 408.059 115.555 408.059ZM80.8736 393.724H108.736V50.2403H80.8736V393.724Z" fill="#FF5666" stroke="#626262"/>
<ellipse cx="249.5" cy="467" rx="142.5" ry="142" fill="#F5F6F8"/>
<path d="M250 591.796C318.671 591.796 374.34 536.127 374.34 467.456C374.34 398.785 318.671 343.116 250 343.116C181.329 343.116 125.66 398.785 125.66 467.456C125.66 536.127 181.329 591.796 250 591.796Z" fill="#F5F6F8" stroke="#626262" stroke-width="12"/>
<path d="M225.867 466.411L229.456 434.797H264.316V445.093H239.581L238.043 458.465C240.976 456.899 244.095 456.116 247.399 456.116C253.323 456.116 257.965 457.953 261.326 461.627C264.687 465.301 266.367 470.441 266.367 477.049C266.367 481.065 265.513 484.668 263.804 487.858C262.123 491.019 259.703 493.483 256.541 495.248C253.38 496.986 249.649 497.854 245.348 497.854C241.589 497.854 238.1 497.1 234.881 495.59C231.663 494.052 229.114 491.902 227.234 489.139C225.383 486.377 224.4 483.229 224.286 479.698H236.505C236.761 482.29 237.658 484.312 239.196 485.764C240.763 487.188 242.799 487.9 245.305 487.9C248.096 487.9 250.247 486.903 251.756 484.91C253.266 482.888 254.021 480.04 254.021 476.365C254.021 472.834 253.152 470.128 251.415 468.248C249.677 466.369 247.214 465.429 244.024 465.429C241.09 465.429 238.712 466.198 236.889 467.736L235.693 468.847L225.867 466.411ZM275.424 490.934C275.424 488.968 276.079 487.373 277.389 486.149C278.728 484.924 280.394 484.312 282.388 484.312C284.41 484.312 286.076 484.924 287.386 486.149C288.725 487.373 289.394 488.968 289.394 490.934C289.394 492.87 288.739 494.451 287.429 495.676C286.119 496.872 284.438 497.47 282.388 497.47C280.365 497.47 278.699 496.872 277.389 495.676C276.079 494.451 275.424 492.87 275.424 490.934Z" fill="#FF5666"/>
</g>
<defs>
<clipPath id="clip0">
<rect width="512" height="600" fill="white"/>
</clipPath>
</defs>
</svg>
