<svg width="440" height="600" viewBox="0 0 440 600" fill="none" xmlns="http://www.w3.org/2000/svg">
<g clip-path="url(#clip0)">
<path d="M425.4 218.5C428.4 218.5 430.9 216 430.9 213V72.1C430.9 69.1 428.4 66.6 425.4 66.6H250.9V22.9C250.9 10.3 240.6 0 228 0H29.6C17 0 6.70001 10.3 6.70001 22.9V414.7C6.70001 427.3 17 437.6 29.6 437.6H228C240.6 437.6 250.9 427.3 250.9 414.7V332.9H425.4C428.4 332.9 430.9 330.4 430.9 327.4V244.3C430.9 241.3 428.4 238.8 425.4 238.8H250.9V218.5H425.4V218.5ZM419.9 207.5H179.3V77.6H418.4L419.9 207.5ZM173.8 238.8C170.8 238.8 168.3 241.3 168.3 244.3V274.2H43.3V183.3H168.3V197.2H59.8C56.8 197.2 54.3 199.7 54.3 202.7C54.3 205.7 56.8 208.2 59.8 208.2H168.3V213C168.3 216 170.8 218.5 173.8 218.5H214.2V238.8H173.8ZM173.8 332.9H214.2V342.2H43.3V305H168.3V327.4C168.3 330.4 170.8 332.9 173.8 332.9ZM168.3 97.9H59.8C56.8 97.9 54.3 100.4 54.3 103.4C54.3 106.4 56.8 108.9 59.8 108.9H168.3V153.2H43.3V85H168.3V97.9V97.9ZM29.5 11.1H227.9C234.5 11.1 239.8 16.4 239.8 23V52.1H17.6V23C17.6 16.4 22.9 11.1 29.5 11.1V11.1ZM227.9 426.7H29.5C22.9 426.7 17.6 421.4 17.6 414.8V376.7H239.8V414.8C239.8 421.4 234.5 426.7 227.9 426.7V426.7ZM239.8 365.7H17.6V63.1H239.8V66.7H173.7C170.7 66.7 168.2 69.2 168.2 72.2V74H37.7C34.7 74 32.2 76.5 32.2 79.5V158.7C32.2 161.7 34.7 164.2 37.7 164.2H168.2V172.4H37.7C34.7 172.4 32.2 174.9 32.2 177.9V279.8C32.2 282.8 34.7 285.3 37.7 285.3H168.2V294H37.7C34.7 294 32.2 296.5 32.2 299.5V347.7C32.2 350.7 34.7 353.2 37.7 353.2H219.6C222.6 353.2 225.1 350.7 225.1 347.7V332.9H239.8V365.6V365.7V365.7ZM419.8 322H179.2V249.9H419.8V322ZM239.8 238.9H225.1V218.6H239.8V238.9Z" fill="#626262"/>
<path d="M109 34.3H148.5C151.5 34.3 154 31.8 154 28.8C154 25.8 151.5 23.3 148.5 23.3H109C106 23.3 103.5 25.8 103.5 28.8C103.5 31.8 106 34.3 109 34.3Z" fill="#626262"/>
<path d="M128.8 383.8C118.9 383.8 110.9 391.8 110.9 401.7C110.9 411.6 118.9 419.6 128.8 419.6C138.7 419.6 146.7 411.6 146.7 401.7C146.7 391.8 138.7 383.8 128.8 383.8ZM128.8 408.7C125 408.7 121.9 405.6 121.9 401.8C121.9 398 125 394.9 128.8 394.9C132.6 394.9 135.7 398 135.7 401.8C135.7 405.6 132.6 408.7 128.8 408.7Z" fill="#626262"/>
<path d="M59.9 129.2H129.4C132.4 129.2 134.9 126.7 134.9 123.7C134.9 120.7 132.4 118.2 129.4 118.2H59.9C56.9 118.2 54.4 120.7 54.4 123.7C54.4 126.7 56.9 129.2 59.9 129.2V129.2Z" fill="#626262"/>
<path d="M59.9 228.6H129.4C132.4 228.6 134.9 226.1 134.9 223.1C134.9 220.1 132.4 217.6 129.4 217.6H59.9C56.9 217.6 54.4 220.1 54.4 223.1C54.4 226.1 56.9 228.6 59.9 228.6V228.6Z" fill="#626262"/>
<path d="M158.7 237.9H59.8C56.8 237.9 54.3 240.4 54.3 243.4C54.3 246.4 56.8 248.9 59.8 248.9H158.7C161.7 248.9 164.2 246.4 164.2 243.4C164.2 240.4 161.7 237.9 158.7 237.9Z" fill="#626262"/>
<path d="M204.3 112.1H394.9C397.9 112.1 400.4 109.6 400.4 106.6C400.4 103.6 397.9 101.1 394.9 101.1H204.3C201.3 101.1 198.8 103.6 198.8 106.6C198.8 109.6 201.3 112.1 204.3 112.1V112.1Z" fill="#FF5666"/>
<path d="M204.3 140.2H300.4C303.4 140.2 305.9 137.7 305.9 134.7C305.9 131.7 303.4 129.2 300.4 129.2H204.3C201.3 129.2 198.8 131.7 198.8 134.7C198.8 137.7 201.3 140.2 204.3 140.2Z" fill="#FF5666"/>
<path d="M204.3 275.5H394.9C397.9 275.5 400.4 273 400.4 270C400.4 267 397.9 264.5 394.9 264.5H204.3C201.3 264.5 198.8 267 198.8 270C198.8 273 201.3 275.5 204.3 275.5V275.5Z" fill="#626262"/>
<path d="M204.3 303.6H300.4C303.4 303.6 305.9 301.1 305.9 298.1C305.9 295.1 303.4 292.6 300.4 292.6H204.3C201.3 292.6 198.8 295.1 198.8 298.1C198.8 301.1 201.3 303.6 204.3 303.6V303.6Z" fill="#626262"/>
<path d="M204.3 168.3H341C344 168.3 346.5 165.8 346.5 162.8C346.5 159.8 344 157.3 341 157.3H204.3C201.3 157.3 198.8 159.8 198.8 162.8C198.8 165.8 201.3 168.3 204.3 168.3Z" fill="#FF5666"/>
<path d="M116.9 318.1H59.8C56.8 318.1 54.3 320.6 54.3 323.6C54.3 326.6 56.8 329.1 59.8 329.1H116.9C119.9 329.1 122.4 326.6 122.4 323.6C122.4 320.6 119.9 318.1 116.9 318.1Z" fill="#626262"/>
<ellipse cx="226.5" cy="471" rx="142.5" ry="142" fill="#F5F6F8"/>
<path d="M226.544 595.756C295.193 595.756 350.844 540.105 350.844 471.456C350.844 402.807 295.193 347.156 226.544 347.156C157.895 347.156 102.244 402.807 102.244 471.456C102.244 540.105 157.895 595.756 226.544 595.756Z" fill="#F5F6F8" stroke="#626262" stroke-width="12"/>
<path d="M229.299 498H216.394V448.255L200.989 453.033V442.539L227.915 432.894H229.299V498ZM251.671 491.659C251.671 489.605 252.356 487.938 253.725 486.658C255.125 485.378 256.866 484.738 258.95 484.738C261.064 484.738 262.805 485.378 264.175 486.658C265.574 487.938 266.273 489.605 266.273 491.659C266.273 493.683 265.589 495.336 264.219 496.616C262.85 497.866 261.093 498.491 258.95 498.491C256.836 498.491 255.095 497.866 253.725 496.616C252.356 495.336 251.671 493.683 251.671 491.659Z" fill="#FF5666"/>
</g>
<defs>
<clipPath id="clip0">
<rect width="440" height="600" fill="white"/>
</clipPath>
</defs>
</svg>
