<svg width="442" height="600" viewBox="0 0 442 600" fill="none" xmlns="http://www.w3.org/2000/svg">
<g clip-path="url(#clip0)">
<path d="M235.548 151.041C232.366 154.25 232.366 159.451 235.55 162.66C238.733 165.869 243.893 165.868 247.075 162.658L253.804 155.872C256.225 153.432 256.874 149.726 255.429 146.597C250.939 136.87 248.662 126.807 248.662 116.686C248.662 96.0826 257.559 76.6767 272.566 63.269L272.592 117.049C272.593 119.742 273.905 122.265 276.102 123.799L314.77 150.79C317.559 152.737 321.255 152.739 324.046 150.792L362.727 123.815C364.928 122.28 366.241 119.756 366.241 117.058L366.235 63.2814C381.24 76.6767 390.138 96.067 390.143 116.653C390.143 135.705 382.785 153.617 369.422 167.09C356.071 180.553 338.324 187.964 319.444 187.964C319.426 187.964 319.407 187.964 319.388 187.964C312.892 187.959 300.14 184.789 295.774 183.567C292.944 182.773 289.907 183.579 287.83 185.673L263.053 210.65C259.87 213.858 259.87 219.06 263.053 222.269C264.644 223.873 266.73 224.676 268.815 224.676C270.901 224.676 272.987 223.873 274.578 222.269L296.055 200.618C302.043 202.111 312.335 204.39 319.375 204.395C319.4 204.395 319.42 204.395 319.444 204.395C342.675 204.394 364.518 195.272 380.948 178.707C397.388 162.131 406.441 140.094 406.441 116.652C406.434 85.0762 389.438 55.7962 362.088 40.2369C359.564 38.8016 356.475 38.8238 353.972 40.2968C351.47 41.7699 349.931 44.4711 349.932 47.3926L349.939 112.753L319.409 134.044L288.891 112.739L288.859 47.3737C288.857 44.4531 287.318 41.7526 284.816 40.2812C282.314 38.809 279.224 38.7885 276.701 40.2246C249.353 55.7979 232.364 85.096 232.364 116.685C232.364 127.356 234.385 137.926 238.381 148.186L235.548 151.041H235.548Z" fill="#FF5666" stroke="#626262"/>
<path d="M213.968 260.133L100.912 374.104C96.6638 378.389 91.016 380.75 85.0096 380.755C85.0055 380.755 85.0023 380.755 84.9974 380.755C78.9926 380.754 73.3439 378.394 69.0963 374.112C64.8494 369.826 62.5137 364.126 62.521 358.058C62.5275 352.009 64.8673 346.331 69.1199 342.058L166.363 244.022C169.545 240.814 169.545 235.613 166.363 232.404C163.18 229.197 158.02 229.196 154.837 232.405L57.605 330.43C50.2767 337.792 46.2344 347.598 46.2222 358.039C46.21 368.499 50.2384 378.331 57.5684 385.728C64.8983 393.117 74.639 397.186 84.9974 397.186C85.0047 397.186 85.012 397.186 85.0186 397.186C95.3778 397.18 105.117 393.107 112.44 385.721L225.494 271.752C228.676 268.544 228.676 263.342 225.494 260.133C222.31 256.926 217.151 256.926 213.968 260.133L213.968 260.133Z" fill="#FF5666" stroke="#626262"/>
<path d="M84.8817 348.083C82.1971 348.085 79.6756 349.142 77.8141 351.028C73.8965 354.953 73.877 361.366 77.7701 365.322C77.7799 365.332 77.7897 365.341 77.7995 365.352C79.7513 367.315 82.3136 368.297 84.88 368.297C87.4521 368.297 90.0283 367.31 91.9948 365.332C95.8953 361.381 95.8839 354.968 91.9859 351.051C90.091 349.136 87.5711 348.083 84.8882 348.083C84.8866 348.083 84.8841 348.083 84.8817 348.083H84.8817Z" fill="#FF5666" stroke="#626262"/>
<path d="M351.336 306.435C350.491 305.585 349.473 304.932 348.351 304.521L324.98 295.979L240.558 210.874L254.203 197.12C257.386 193.912 257.386 188.71 254.203 185.501C251.787 183.067 248.233 182.479 245.268 183.739L117.576 55.0322C109.853 47.2217 99.5677 42.9135 88.6152 42.9003C88.5989 42.9003 88.5842 42.9003 88.5679 42.9003C77.6154 42.9003 67.3205 47.1938 59.5741 54.9936C51.8179 62.8122 47.5499 73.2032 47.5564 84.2531C47.5621 95.2939 51.8334 105.675 59.5815 113.481L187.276 242.199C186.026 245.187 186.608 248.77 189.023 251.205C192.207 254.412 197.367 254.414 200.549 251.205L214.191 237.453L298.614 322.556L307.089 346.116C307.495 347.247 308.143 348.275 308.988 349.125L356.358 396.876C357.949 398.479 360.035 399.282 362.12 399.282C364.206 399.282 366.292 398.479 367.883 396.876L398.705 365.806C400.233 364.264 401.092 362.175 401.092 359.996C401.092 357.818 400.233 355.728 398.705 354.187L351.336 306.435V306.435ZM223.268 205.065C223.251 205.082 223.233 205.101 223.216 205.119L198.379 230.155L71.1053 101.861C66.4338 97.1547 63.8593 90.8986 63.856 84.2448C63.8528 77.587 66.4248 71.3252 71.0963 66.616C75.7621 61.9176 81.9657 59.3322 88.5679 59.3322C88.5777 59.3322 88.5874 59.3322 88.5964 59.3322C95.192 59.3396 101.383 61.9324 106.039 66.6415L233.319 194.934L223.321 205.013C223.304 205.03 223.286 205.047 223.268 205.065H223.268ZM362.12 379.448L321.795 338.798L313.32 315.238C312.913 314.107 312.266 313.079 311.421 312.229L225.717 225.835L229.032 222.494L314.736 308.889C315.58 309.739 316.599 310.392 317.72 310.803L341.091 319.345L381.417 359.996L362.12 379.448V379.448Z" fill="#626262" stroke="#626262"/>
<path d="M94.2905 78.3864C91.108 75.179 85.9475 75.179 82.765 78.3864C79.5825 81.5945 79.5825 86.7966 82.765 90.0055L195.193 203.338C196.783 204.942 198.87 205.745 200.955 205.745C203.041 205.745 205.127 204.942 206.718 203.338C209.9 200.13 209.9 194.928 206.718 191.719L94.2905 78.3864V78.3864Z" fill="#626262" stroke="#626262"/>
<ellipse cx="227.5" cy="471" rx="142.5" ry="142" fill="#F5F6F8"/>
<path d="M227.901 596.537C296.572 596.537 352.241 540.868 352.241 472.197C352.241 403.526 296.572 347.857 227.901 347.857C159.23 347.857 103.562 403.526 103.562 472.197C103.562 540.868 159.23 596.537 227.901 596.537Z" fill="#F5F6F8" stroke="#626262" stroke-width="12"/>
<path d="M232.812 438.157V448.324H231.615C226.033 448.41 221.533 449.862 218.115 452.682C214.726 455.502 212.69 459.418 212.006 464.43C215.31 461.07 219.483 459.389 224.524 459.389C229.935 459.389 234.236 461.326 237.426 465.199C240.615 469.073 242.21 474.171 242.21 480.494C242.21 484.538 241.327 488.198 239.562 491.473C237.824 494.748 235.346 497.297 232.128 499.12C228.938 500.943 225.321 501.854 221.277 501.854C214.726 501.854 209.429 499.576 205.384 495.019C201.369 490.462 199.361 484.381 199.361 476.777V472.334C199.361 465.584 200.628 459.631 203.163 454.476C205.726 449.293 209.386 445.291 214.142 442.472C218.927 439.623 224.467 438.185 230.761 438.157H232.812ZM220.764 469.301C218.771 469.301 216.962 469.828 215.339 470.881C213.715 471.907 212.519 473.274 211.75 474.983V478.742C211.75 482.872 212.562 486.104 214.185 488.44C215.809 490.747 218.087 491.9 221.021 491.9C223.669 491.9 225.805 490.861 227.429 488.782C229.081 486.674 229.907 483.954 229.907 480.622C229.907 477.233 229.081 474.498 227.429 472.419C225.777 470.34 223.555 469.301 220.764 469.301ZM250.712 494.934C250.712 492.968 251.367 491.373 252.677 490.149C254.016 488.924 255.682 488.312 257.676 488.312C259.698 488.312 261.364 488.924 262.674 490.149C264.013 491.373 264.682 492.968 264.682 494.934C264.682 496.87 264.027 498.451 262.717 499.676C261.407 500.872 259.726 501.47 257.676 501.47C255.653 501.47 253.987 500.872 252.677 499.676C251.367 498.451 250.712 496.87 250.712 494.934Z" fill="#FF5666"/>
</g>
<defs>
<clipPath id="clip0">
<rect width="442" height="600" fill="white"/>
</clipPath>
</defs>
</svg>
