<svg width="512" height="600" viewBox="0 0 512 600" fill="none" xmlns="http://www.w3.org/2000/svg">
<g clip-path="url(#clip0)">
<path d="M496.5 414.167H180.354C176.734 370.327 141.675 335.268 97.834 331.647V15.501C97.834 6.95401 90.881 0.00100708 82.334 0.00100708H15.5C6.953 0.00100708 0 6.95401 0 15.501V91.897C0 96.04 3.358 99.397 7.5 99.397C11.642 99.397 15 96.04 15 91.897V15.501C15 15.226 15.224 15.001 15.5 15.001H82.334C82.61 15.001 82.834 15.226 82.834 15.501V33.135H57.2C53.058 33.135 49.7 36.492 49.7 40.635C49.7 44.778 53.058 48.135 57.2 48.135H82.833V66.267H74.025C69.883 66.267 66.525 69.624 66.525 73.767C66.525 77.91 69.883 81.267 74.025 81.267H82.833V99.399H57.2C53.058 99.399 49.7 102.756 49.7 106.899C49.7 111.042 53.058 114.399 57.2 114.399H82.833V132.531H74.025C69.883 132.531 66.525 135.888 66.525 140.031C66.525 144.174 69.883 147.531 74.025 147.531H82.833V165.662H57.2C53.058 165.662 49.7 169.019 49.7 173.162C49.7 177.305 53.058 180.662 57.2 180.662H82.833V198.794H74.025C69.883 198.794 66.525 202.151 66.525 206.294C66.525 210.437 69.883 213.794 74.025 213.794H82.833V231.932H57.2C53.058 231.932 49.7 235.289 49.7 239.432C49.7 243.575 53.058 246.932 57.2 246.932H82.833V265.063H74.025C69.883 265.063 66.525 268.42 66.525 272.563C66.525 276.706 69.883 280.063 74.025 280.063H82.833V298.2H57.2C53.058 298.2 49.7 301.557 49.7 305.7C49.7 309.843 53.058 313.2 57.2 313.2H82.833V331.335H15V121.896C15 117.753 11.642 114.396 7.5 114.396C3.358 114.396 0 117.753 0 121.896V487.934C0 501.204 10.797 512 24.067 512H173.167H496.5C505.047 512 512 505.047 512 496.5V429.667C512 421.12 505.047 414.167 496.5 414.167V414.167ZM15 487.934V346.333H90.334C131.873 346.333 165.667 380.127 165.667 421.666V421.667V497H24.067C19.068 497 15 492.933 15 487.934V487.934ZM497 496.5C497 496.775 496.776 497 496.5 497H180.667V429.167H198.801V454.8C198.801 458.943 202.159 462.3 206.301 462.3C210.443 462.3 213.801 458.943 213.801 454.8V429.167H231.933V437.975C231.933 442.118 235.291 445.475 239.433 445.475C243.575 445.475 246.933 442.118 246.933 437.975V429.167H265.064V454.8C265.064 458.943 268.422 462.3 272.564 462.3C276.706 462.3 280.064 458.943 280.064 454.8V429.167H298.196V437.975C298.196 442.118 301.554 445.475 305.696 445.475C309.838 445.475 313.196 442.118 313.196 437.975V429.167H331.327V454.8C331.327 458.943 334.685 462.3 338.827 462.3C342.969 462.3 346.327 458.943 346.327 454.8V429.167H364.459V437.975C364.459 442.118 367.817 445.475 371.959 445.475C376.101 445.475 379.459 442.118 379.459 437.975V429.167H397.597V454.8C397.597 458.943 400.955 462.3 405.097 462.3C409.239 462.3 412.597 458.943 412.597 454.8V429.167H430.727V437.975C430.727 442.118 434.085 445.475 438.227 445.475C442.369 445.475 445.727 442.118 445.727 437.975V429.167H463.864V454.8C463.864 458.943 467.222 462.3 471.364 462.3C475.506 462.3 478.864 458.943 478.864 454.8V429.167H496.5C496.776 429.167 497 429.392 497 429.667V496.5V496.5Z" fill="#626262"/>
<path d="M90.334 397.6C77.063 397.6 66.268 408.396 66.268 421.666C66.268 434.937 77.064 445.732 90.334 445.732C103.604 445.732 114.4 434.936 114.4 421.666C114.4 408.396 103.604 397.6 90.334 397.6ZM90.334 430.732C85.335 430.732 81.268 426.665 81.268 421.666C81.268 416.667 85.335 412.6 90.334 412.6C95.333 412.6 99.4 416.667 99.4 421.666C99.4 426.665 95.333 430.732 90.334 430.732Z" fill="#626262"/>
<path d="M90.334 364.467C58.794 364.467 33.134 390.126 33.134 421.666C33.134 453.206 58.794 478.866 90.334 478.866C121.874 478.866 147.534 453.206 147.534 421.666C147.533 390.126 121.874 364.467 90.334 364.467V364.467ZM90.334 463.866C67.065 463.866 48.134 444.935 48.134 421.666C48.134 398.398 67.065 379.467 90.334 379.467C113.603 379.467 132.534 398.398 132.534 421.666C132.533 444.935 113.603 463.866 90.334 463.866V463.866Z" fill="#626262"/>
<path d="M214.864 143.605C216.636 143.605 218.415 142.981 219.844 141.71L241.291 122.647C244.387 119.895 244.666 115.155 241.914 112.059C239.162 108.963 234.421 108.682 231.326 111.436L209.878 130.5C206.782 133.252 206.504 137.992 209.256 141.088C210.737 142.755 212.795 143.605 214.864 143.605V143.605Z" fill="#FF5666"/>
<path d="M261.542 102.113C263.314 102.113 265.093 101.489 266.522 100.219L287.969 81.155C291.065 78.403 291.343 73.663 288.591 70.567C285.839 67.471 281.098 67.19 278.003 69.944L256.556 89.007C253.46 91.759 253.182 96.499 255.933 99.595C257.415 101.263 259.473 102.113 261.542 102.113Z" fill="#FF5666"/>
<path d="M173.167 180.667H190.77C194.912 180.667 198.27 177.31 198.27 173.167C198.27 169.591 195.767 166.599 192.417 165.849C194.422 163.062 194.305 159.163 191.929 156.491C189.177 153.395 184.437 153.113 181.341 155.868L168.185 167.562C165.858 169.63 165.051 172.922 166.158 175.833C167.263 178.743 170.053 180.667 173.167 180.667V180.667Z" fill="#FF5666"/>
<path d="M271.04 173.167C271.04 169.024 267.682 165.667 263.54 165.667H230.733C226.591 165.667 223.233 169.024 223.233 173.167C223.233 177.31 226.591 180.667 230.733 180.667H263.54C267.682 180.667 271.04 177.31 271.04 173.167Z" fill="#FF5666"/>
<path d="M300.523 362.9H314.767V381.033H305.7C301.558 381.033 298.2 384.39 298.2 388.533C298.2 392.676 301.558 396.033 305.7 396.033H338.833C342.975 396.033 346.333 392.676 346.333 388.533C346.333 384.39 342.975 381.033 338.833 381.033H329.766V362.9H365.249C369.391 362.9 372.749 359.543 372.749 355.4C372.749 351.257 369.391 347.9 365.249 347.9H329.766V180.667H430.733V347.9H395.25C391.108 347.9 387.75 351.257 387.75 355.4C387.75 359.543 391.108 362.9 395.25 362.9H438.233C442.375 362.9 445.733 359.543 445.733 355.4V180.667H471.366C474.48 180.667 477.27 178.743 478.376 175.832C479.483 172.922 478.676 169.63 476.349 167.561L329.767 37.265V15H338.833C342.975 15 346.333 11.643 346.333 7.5C346.333 3.357 342.975 0 338.833 0H305.7C301.558 0 298.2 3.357 298.2 7.5C298.2 11.643 301.558 15 305.7 15H314.767V37.264L304.128 46.721C301.032 49.473 300.753 54.213 303.506 57.309C304.988 58.977 307.046 59.826 309.114 59.826C310.886 59.826 312.665 59.201 314.094 57.931L314.767 57.332V165.665H304.665C300.523 165.665 297.165 169.022 297.165 173.165C297.165 177.308 300.523 180.665 304.665 180.665H314.767V347.9H300.523C296.381 347.9 293.023 351.257 293.023 355.4C293.023 359.543 296.381 362.9 300.523 362.9ZM451.64 165.667H329.767V57.335L451.64 165.667Z" fill="#626262"/>
<path d="M254.009 362.9H275.313C279.455 362.9 282.813 359.543 282.813 355.4C282.813 351.257 279.455 347.9 275.313 347.9H254.009C249.867 347.9 246.509 351.257 246.509 355.4C246.509 359.543 249.866 362.9 254.009 362.9Z" fill="#626262"/>
<path d="M206.3 362.9H228.044C232.186 362.9 235.544 359.543 235.544 355.4C235.544 351.257 232.186 347.9 228.044 347.9H213.8V333.656C213.8 329.513 210.442 326.156 206.3 326.156C202.158 326.156 198.8 329.513 198.8 333.656V355.4C198.8 359.543 202.158 362.9 206.3 362.9Z" fill="#FF5666"/>
<path d="M206.3 301.54C210.442 301.54 213.8 298.183 213.8 294.04V260.561C213.8 256.418 210.442 253.061 206.3 253.061C202.158 253.061 198.8 256.418 198.8 260.561V294.04C198.8 298.183 202.158 301.54 206.3 301.54Z" fill="#FF5666"/>
<path d="M206.3 227.261C210.442 227.261 213.8 223.904 213.8 219.761V198.017C213.8 193.874 210.442 190.517 206.3 190.517C202.158 190.517 198.8 193.874 198.8 198.017V219.761C198.8 223.903 202.158 227.261 206.3 227.261Z" fill="#FF5666"/>
<ellipse cx="261.5" cy="470" rx="142.5" ry="142" fill="#F5F6F8"/>
<path d="M261.679 594.167C330.35 594.167 386.019 538.498 386.019 469.827C386.019 401.156 330.35 345.487 261.679 345.487C193.008 345.487 137.339 401.156 137.339 469.827C137.339 538.498 193.008 594.167 261.679 594.167Z" fill="#F5F6F8" stroke="#626262" stroke-width="12"/>
<path d="M278.666 499H236.03V490.541L256.152 469.095C258.915 466.076 260.951 463.441 262.261 461.191C263.6 458.941 264.269 456.805 264.269 454.783C264.269 452.021 263.571 449.856 262.176 448.29C260.78 446.695 258.786 445.897 256.195 445.897C253.403 445.897 251.196 446.866 249.573 448.802C247.978 450.71 247.18 453.231 247.18 456.364H234.791C234.791 452.576 235.688 449.116 237.483 445.983C239.305 442.85 241.869 440.4 245.172 438.635C248.476 436.84 252.221 435.943 256.408 435.943C262.816 435.943 267.786 437.481 271.318 440.557C274.878 443.633 276.658 447.976 276.658 453.587C276.658 456.663 275.861 459.796 274.266 462.986C272.671 466.176 269.937 469.892 266.063 474.136L251.922 489.046H278.666V499ZM287.424 492.934C287.424 490.968 288.079 489.373 289.389 488.149C290.728 486.924 292.394 486.312 294.388 486.312C296.41 486.312 298.076 486.924 299.386 488.149C300.725 489.373 301.394 490.968 301.394 492.934C301.394 494.87 300.739 496.451 299.429 497.676C298.119 498.872 296.438 499.47 294.388 499.47C292.365 499.47 290.699 498.872 289.389 497.676C288.079 496.451 287.424 494.87 287.424 492.934Z" fill="#FF5666"/>
</g>
<defs>
<clipPath id="clip0">
<rect width="512" height="600" fill="white"/>
</clipPath>
</defs>
</svg>
