<svg width="496" height="600" viewBox="0 0 496 600" fill="none" xmlns="http://www.w3.org/2000/svg">
<g clip-path="url(#clip0)">
<path d="M96 82.3704V50.3704C96 23.8984 74.472 2.37036 48 2.37036C21.528 2.37036 0 23.8984 0 50.3704V354.37C0 380.842 21.528 402.37 48 402.37H400V466.37C400 484.018 414.352 498.37 432 498.37C449.648 498.37 464 484.018 464 466.37V402.37H496V82.3704H96V82.3704ZM48 386.37C30.352 386.37 16 372.018 16 354.37C16 336.722 30.352 322.37 48 322.37C65.648 322.37 80 336.722 80 354.37C80 372.018 65.648 386.37 48 386.37ZM80 318.69C71.496 311.058 60.304 306.37 48 306.37C35.696 306.37 24.504 311.058 16 318.69V50.3704C16 32.7224 30.352 18.3704 48 18.3704C65.648 18.3704 80 32.7224 80 50.3704V318.69ZM448 466.37C448 475.194 440.824 482.37 432 482.37C423.176 482.37 416 475.194 416 466.37V450.37H448V466.37ZM448 434.37H416V418.37H448V434.37ZM448 402.37H416V170.37H448V402.37ZM417.328 154.37L432 129.914L446.672 154.37H417.328V154.37ZM480 386.37H464V152.154L432 98.8264L400 152.154V386.37H83.68C91.312 377.866 96 366.674 96 354.37V98.3704H480V386.37Z" fill="#626262"/>
<path d="M136 282.37C149.232 282.37 160 271.602 160 258.37C160 248.13 153.52 239.434 144.472 235.994C147.608 212.538 167.696 194.37 192 194.37C210.68 194.37 227.6 205.458 235.4 222.034C228.584 226.274 224 233.77 224 242.37C224 254.506 233.088 264.458 244.792 266.042C254.416 290.01 277.84 306.37 304 306.37C337.048 306.37 364.32 281.186 367.656 249.002C377.12 245.786 384 236.914 384 226.37C384 213.138 373.232 202.37 360 202.37C346.768 202.37 336 213.138 336 226.37C336 236.61 342.48 245.306 351.528 248.746C348.392 272.202 328.304 290.37 304 290.37C285.32 290.37 268.4 279.282 260.6 262.706C267.416 258.466 272 250.97 272 242.37C272 230.234 262.912 220.282 251.208 218.698C241.584 194.73 218.16 178.37 192 178.37C158.952 178.37 131.68 203.554 128.344 235.738C118.88 238.954 112 247.826 112 258.37C112 271.602 122.768 282.37 136 282.37ZM360 218.37C364.416 218.37 368 221.954 368 226.37C368 230.786 364.416 234.37 360 234.37C355.584 234.37 352 230.786 352 226.37C352 221.954 355.584 218.37 360 218.37ZM248 234.37C252.416 234.37 256 237.954 256 242.37C256 246.786 252.416 250.37 248 250.37C243.584 250.37 240 246.786 240 242.37C240 237.954 243.584 234.37 248 234.37ZM136 250.37C140.416 250.37 144 253.954 144 258.37C144 262.786 140.416 266.37 136 266.37C131.584 266.37 128 262.786 128 258.37C128 253.954 131.584 250.37 136 250.37Z" fill="#FF5666"/>
<path d="M256 290.37H240V306.37H256V290.37Z" fill="#626262"/>
<path d="M256 322.37H240V338.37H256V322.37Z" fill="#626262"/>
<path d="M256 354.37H240V370.37H256V354.37Z" fill="#626262"/>
<path d="M256 114.37H240V130.37H256V114.37Z" fill="#626262"/>
<path d="M256 146.37H240V162.37H256V146.37Z" fill="#626262"/>
<path d="M256 178.37H240V194.37H256V178.37Z" fill="#626262"/>
<ellipse cx="247.5" cy="469" rx="142.5" ry="142" fill="#F5F6F8"/>
<path d="M250 591.797C318.671 591.797 374.34 536.128 374.34 467.457C374.34 398.786 318.671 343.117 250 343.117C181.329 343.117 125.66 398.786 125.66 467.457C125.66 536.128 181.329 591.797 250 591.797Z" fill="#F5F6F8" stroke="#626262" stroke-width="12"/>
<path d="M258.845 474.589H265.894V484.543H258.845V498H246.498V484.543H220.994L220.438 476.767L246.37 435.797H258.845V474.589ZM232.742 474.589H246.498V452.63L245.687 454.04L232.742 474.589ZM273.712 491.934C273.712 489.968 274.367 488.373 275.677 487.149C277.016 485.924 278.682 485.312 280.676 485.312C282.698 485.312 284.364 485.924 285.674 487.149C287.013 488.373 287.682 489.968 287.682 491.934C287.682 493.87 287.027 495.451 285.717 496.676C284.407 497.872 282.726 498.47 280.676 498.47C278.653 498.47 276.987 497.872 275.677 496.676C274.367 495.451 273.712 493.87 273.712 491.934Z" fill="#FF5666"/>
</g>
<defs>
<clipPath id="clip0">
<rect width="496" height="600" fill="white"/>
</clipPath>
</defs>
</svg>
