<svg width="512" height="600" viewBox="0 0 512 600" fill="none" xmlns="http://www.w3.org/2000/svg">
<g clip-path="url(#clip0)">
<path d="M416 32H335.999C335.992 32 335.986 32.001 335.979 32.001C328.674 22.292 317.059 16 304 16H283.61C277.966 6.242 267.481 0 256 0C244.519 0 234.034 6.242 228.39 16H208C194.941 16 183.326 22.292 176.021 32.001C176.014 32.001 176.007 32 176 32H96C73.944 32 56 49.944 56 72V472C56 494.056 73.944 512 96 512H416C438.056 512 456 494.056 456 472V72C456 49.944 438.056 32 416 32V32ZM184 56C184 42.767 194.767 32 208 32H233.47C236.855 32 239.874 29.869 241.008 26.68C243.278 20.292 249.303 16 256 16C262.697 16 268.722 20.292 270.992 26.68C272.126 29.869 275.145 32 278.53 32H304C317.233 32 328 42.767 328 56V80H184V56ZM440 472C440 485.233 429.233 496 416 496H96C82.767 496 72 485.233 72 472V72C72 58.767 82.767 48 96 48H168.805C168.278 50.586 168 53.261 168 56V88C168 92.418 171.582 96 176 96H336C340.418 96 344 92.418 344 88V56C344 53.261 343.722 50.586 343.195 48H416C429.233 48 440 58.767 440 72V472Z" fill="#626262"/>
<path d="M416 64H368C363.582 64 360 67.582 360 72C360 76.418 363.582 80 368 80H408V360H328C314.767 360 304 370.767 304 384V431.999C304 436.417 307.582 439.999 312 439.999C316.418 439.999 320 436.417 320 431.999V384C320 379.589 323.589 376 328 376H396.686L308.686 464H104V80H144C148.418 80 152 76.418 152 72C152 67.582 148.418 64 144 64H96C91.582 64 88 67.582 88 72V472C88 476.418 91.582 480 96 480H312.001C312.01 480 312.018 479.999 312.026 479.999C312.28 479.998 312.534 479.986 312.788 479.961C312.917 479.948 313.043 479.925 313.17 479.906C313.3 479.887 313.431 479.872 313.56 479.847C313.708 479.818 313.851 479.778 313.996 479.74C314.103 479.713 314.211 479.69 314.316 479.658C314.462 479.614 314.602 479.56 314.744 479.508C314.847 479.47 314.951 479.437 315.053 479.395C315.191 479.338 315.323 479.272 315.456 479.208C315.558 479.159 315.661 479.115 315.761 479.061C315.899 478.988 316.03 478.905 316.162 478.824C316.252 478.769 316.343 478.719 316.431 478.661C316.591 478.554 316.744 478.437 316.895 478.32C316.949 478.278 317.006 478.241 317.06 478.197C317.275 478.022 317.48 477.836 317.675 477.639L421.655 373.659C421.667 373.647 421.676 373.633 421.688 373.62C421.923 373.382 422.137 373.126 422.341 372.861C422.396 372.789 422.451 372.717 422.503 372.644C422.702 372.365 422.888 372.077 423.051 371.773C423.068 371.742 423.081 371.709 423.097 371.677C423.244 371.394 423.371 371.1 423.484 370.799C423.51 370.729 423.537 370.66 423.561 370.589C423.674 370.259 423.771 369.922 423.841 369.574C423.845 369.555 423.846 369.535 423.85 369.516C423.91 369.201 423.948 368.879 423.97 368.552C423.977 368.456 423.981 368.361 423.985 368.265C423.988 368.176 423.998 368.09 423.998 368V72C424 67.582 420.418 64 416 64V64Z" fill="#626262"/>
<path d="M256 32C253.89 32 251.83 32.85 250.34 34.34C248.85 35.83 248 37.89 248 40C248 42.11 248.85 44.17 250.34 45.66C251.83 47.15 253.89 48 256 48C258.1 48 260.17 47.15 261.66 45.66C263.15 44.17 264 42.11 264 40C264 37.89 263.15 35.83 261.66 34.34C260.17 32.85 258.1 32 256 32Z" fill="#626262"/>
<path d="M288 152H368C372.418 152 376 148.418 376 144C376 139.582 372.418 136 368 136H288C283.582 136 280 139.582 280 144C280 148.418 283.582 152 288 152Z" fill="#626262"/>
<path d="M224 184H368C372.418 184 376 180.418 376 176C376 171.582 372.418 168 368 168H224C219.582 168 216 171.582 216 176C216 180.418 219.582 184 224 184Z" fill="#626262"/>
<path d="M368 232H144C139.582 232 136 235.582 136 240C136 244.418 139.582 248 144 248H368C372.418 248 376 244.418 376 240C376 235.582 372.418 232 368 232Z" fill="#FF5666"/>
<path d="M368 264H144C139.582 264 136 267.582 136 272C136 276.418 139.582 280 144 280H368C372.418 280 376 276.418 376 272C376 267.582 372.418 264 368 264Z" fill="#FF5666"/>
<path d="M368 296H144C139.582 296 136 299.582 136 304C136 308.418 139.582 312 144 312H368C372.418 312 376 308.418 376 304C376 299.582 372.418 296 368 296Z" fill="#FF5666"/>
<path d="M376 336C376 331.582 372.418 328 368 328H144C139.582 328 136 331.582 136 336C136 340.418 139.582 344 144 344H368C372.418 344 376 340.418 376 336Z" fill="#FF5666"/>
<path d="M280 360H216C211.582 360 208 363.582 208 368C208 372.418 211.582 376 216 376H280C284.418 376 288 372.418 288 368C288 363.582 284.418 360 280 360Z" fill="#626262"/>
<path d="M280 392H216C211.582 392 208 395.582 208 400C208 404.418 211.582 408 216 408H280C284.418 408 288 404.418 288 400C288 395.582 284.418 392 280 392Z" fill="#626262"/>
<path d="M136 144C136 148.418 139.582 152 144 152H184C188.418 152 192 148.418 192 144C192 139.582 188.418 136 184 136H144C139.582 136 136 139.582 136 144Z" fill="#626262"/>
<path d="M120 396C120 415.851 136.149 432 156 432C175.851 432 192 415.851 192 396C192 376.149 175.851 360 156 360C136.149 360 120 376.149 120 396ZM176 396C176 407.028 167.028 416 156 416C144.972 416 136 407.028 136 396C136 384.972 144.972 376 156 376C167.028 376 176 384.972 176 396Z" fill="#626262"/>
<ellipse cx="263.5" cy="468" rx="142.5" ry="142" fill="#F5F6F8"/>
<path d="M264.049 591.797C332.72 591.797 388.389 536.128 388.389 467.457C388.389 398.786 332.72 343.117 264.049 343.117C195.378 343.117 139.71 398.786 139.71 467.457C139.71 536.128 195.378 591.797 264.049 591.797Z" fill="#F5F6F8" stroke="#626262" stroke-width="12"/>
<path d="M257.59 460.43H264.169C267.302 460.43 269.623 459.647 271.133 458.081C272.642 456.514 273.397 454.435 273.397 451.843C273.397 449.337 272.642 447.386 271.133 445.991C269.652 444.595 267.601 443.897 264.981 443.897C262.617 443.897 260.638 444.552 259.043 445.862C257.448 447.144 256.65 448.824 256.65 450.903H244.304C244.304 447.657 245.172 444.752 246.91 442.188C248.676 439.597 251.125 437.574 254.258 436.122C257.419 434.669 260.894 433.943 264.682 433.943C271.261 433.943 276.416 435.524 280.147 438.685C283.878 441.818 285.744 446.147 285.744 451.672C285.744 454.521 284.875 457.141 283.138 459.533C281.4 461.926 279.122 463.763 276.302 465.044C279.805 466.297 282.411 468.177 284.12 470.684C285.858 473.19 286.726 476.152 286.726 479.57C286.726 485.095 284.704 489.524 280.66 492.856C276.644 496.188 271.318 497.854 264.682 497.854C258.473 497.854 253.389 496.217 249.43 492.941C245.5 489.666 243.535 485.337 243.535 479.954H255.881C255.881 482.29 256.75 484.198 258.487 485.679C260.253 487.16 262.418 487.9 264.981 487.9C267.915 487.9 270.207 487.131 271.859 485.593C273.54 484.027 274.38 481.962 274.38 479.399C274.38 473.19 270.962 470.085 264.127 470.085H257.59V460.43ZM296.424 490.934C296.424 488.968 297.079 487.373 298.389 486.149C299.728 484.924 301.394 484.312 303.388 484.312C305.41 484.312 307.076 484.924 308.386 486.149C309.725 487.373 310.394 488.968 310.394 490.934C310.394 492.87 309.739 494.451 308.429 495.676C307.119 496.872 305.438 497.47 303.388 497.47C301.365 497.47 299.699 496.872 298.389 495.676C297.079 494.451 296.424 492.87 296.424 490.934Z" fill="#FF5666"/>
</g>
<defs>
<clipPath id="clip0">
<rect width="512" height="600" fill="white"/>
</clipPath>
</defs>
</svg>
