<svg
  width="440"
  height="600"
  xmlns="http://www.w3.org/2000/svg"
  xmlns:svg="http://www.w3.org/2000/svg"
>
  <title>application-form</title>
  <g>
    <title>Layer 1</title>
    <g id="svg_1">
      <path
        d="m109,34.3l39.5,0c3,0 5.5,-2.5 5.5,-5.5s-2.5,-5.5 -5.5,-5.5l-39.5,0c-3,0 -5.5,2.5 -5.5,5.5s2.5,5.5 5.5,5.5z"
        id="svg_2"
      />
      <path
        d="m128.8,383.8c-9.9,0 -17.9,8 -17.9,17.9s8,17.9 17.9,17.9s17.9,-8 17.9,-17.9s-8,-17.9 -17.9,-17.9zm0,24.9c-3.8,0 -6.9,-3.1 -6.9,-6.9s3.1,-6.9 6.9,-6.9s6.9,3.1 6.9,6.9s-3.1,6.9 -6.9,6.9z"
        id="svg_3"
      />
      <path
        d="m59.9,129.2l69.5,0c3,0 5.5,-2.5 5.5,-5.5s-2.5,-5.5 -5.5,-5.5l-69.5,0c-3,0 -5.5,2.5 -5.5,5.5s2.5,5.5 5.5,5.5z"
        id="svg_4"
      />
      <path
        d="m59.9,228.6l69.5,0c3,0 5.5,-2.5 5.5,-5.5s-2.5,-5.5 -5.5,-5.5l-69.5,0c-3,0 -5.5,2.5 -5.5,5.5s2.5,5.5 5.5,5.5z"
        id="svg_5"
      />
      <path
        d="m158.7,237.9l-98.9,0c-3,0 -5.5,2.5 -5.5,5.5s2.5,5.5 5.5,5.5l98.9,0c3,0 5.5,-2.5 5.5,-5.5s-2.5,-5.5 -5.5,-5.5z"
        id="svg_6"
      />
      <path
        fill="black"
        d="m425.4,218.5c3,0 5.5,-2.5 5.5,-5.5l0,-140.9c0,-3 -2.5,-5.5 -5.5,-5.5l-174.5,0l0,-43.7c0,-12.6 -10.3,-22.9 -22.9,-22.9l-198.4,0c-12.6,0 -22.9,10.3 -22.9,22.9l0,391.8c0,12.6 10.3,22.9 22.9,22.9l198.4,0c12.6,0 22.9,-10.3 22.9,-22.9l0,-81.8l174.5,0c3,0 5.5,-2.5 5.5,-5.5l0,-83.1c0,-3 -2.5,-5.5 -5.5,-5.5l-174.5,0l0,-20.3l174.5,0zm-5.5,-11l-240.6,0l0,-129.9l239.1,0l1.5,129.9zm-246.1,31.3c-3,0 -5.5,2.5 -5.5,5.5l0,29.9l-125,0l0,-90.9l125,0l0,13.9l-108.5,0c-3,0 -5.5,2.5 -5.5,5.5s2.5,5.5 5.5,5.5l108.5,0l0,4.8c0,3 2.5,5.5 5.5,5.5l40.4,0l0,20.3l-40.4,0zm0,94.1l40.4,0l0,9.3l-170.9,0l0,-37.2l125,0l0,22.4c0,3 2.5,5.5 5.5,5.5zm-5.5,-235l-108.5,0c-3,0 -5.5,2.5 -5.5,5.5s2.5,5.5 5.5,5.5l108.5,0l0,44.3l-125,0l0,-68.2l125,0l0,12.9zm-138.8,-86.8l198.4,0c6.6,0 11.9,5.3 11.9,11.9l0,29.1l-222.2,0l0,-29.1c0,-6.6 5.3,-11.9 11.9,-11.9zm198.4,415.6l-198.4,0c-6.6,0 -11.9,-5.3 -11.9,-11.9l0,-38.1l222.2,0l0,38.1c0,6.6 -5.3,11.9 -11.9,11.9zm11.9,-61l-222.2,0l0,-302.6l222.2,0l0,3.6l-66.1,0c-3,0 -5.5,2.5 -5.5,5.5l0,1.8l-130.5,0c-3,0 -5.5,2.5 -5.5,5.5l0,79.2c0,3 2.5,5.5 5.5,5.5l130.5,0l0,8.2l-130.5,0c-3,0 -5.5,2.5 -5.5,5.5l0,101.9c0,3 2.5,5.5 5.5,5.5l130.5,0l0,8.7l-130.5,0c-3,0 -5.5,2.5 -5.5,5.5l0,48.2c0,3 2.5,5.5 5.5,5.5l181.9,0c3,0 5.5,-2.5 5.5,-5.5l0,-14.8l14.7,0l0,32.7l0,0.1zm180,-43.7l-240.6,0l0,-72.1l240.6,0l0,72.1zm-180,-83.1l-14.7,0l0,-20.3l14.7,0l0,20.3z"
        id="svg_7"
      />
      <path
        stroke-opacity="0"
        fill="#ff5666"
        d="m204.3,112.1l190.6,0c3,0 5.5,-2.5 5.5,-5.5s-2.5,-5.5 -5.5,-5.5l-190.6,0c-3,0 -5.5,2.5 -5.5,5.5s2.5,5.5 5.5,5.5z"
        id="svg_8"
      />
      <path
        fill="#ff5666"
        d="m204.3,140.2l96.1,0c3,0 5.5,-2.5 5.5,-5.5s-2.5,-5.5 -5.5,-5.5l-96.1,0c-3,0 -5.5,2.5 -5.5,5.5s2.5,5.5 5.5,5.5z"
        id="svg_9"
      />
      <path
        d="m204.3,275.5l190.6,0c3,0 5.5,-2.5 5.5,-5.5s-2.5,-5.5 -5.5,-5.5l-190.6,0c-3,0 -5.5,2.5 -5.5,5.5s2.5,5.5 5.5,5.5z"
        id="svg_10"
      />
      <path
        d="m204.3,303.6l96.1,0c3,0 5.5,-2.5 5.5,-5.5s-2.5,-5.5 -5.5,-5.5l-96.1,0c-3,0 -5.5,2.5 -5.5,5.5s2.5,5.5 5.5,5.5z"
        id="svg_11"
      />
      <path
        fill="#ff5666"
        d="m204.3,168.3l136.7,0c3,0 5.5,-2.5 5.5,-5.5s-2.5,-5.5 -5.5,-5.5l-136.7,0c-3,0 -5.5,2.5 -5.5,5.5s2.5,5.5 5.5,5.5z"
        id="svg_12"
      />
      <path
        d="m116.9,318.1l-57.1,0c-3,0 -5.5,2.5 -5.5,5.5s2.5,5.5 5.5,5.5l57.1,0c3,0 5.5,-2.5 5.5,-5.5s-2.5,-5.5 -5.5,-5.5z"
        id="svg_13"
      />
    </g>
    <g id="svg_14" />
    <g id="svg_15" />
    <g id="svg_16" />
    <g id="svg_17" />
    <g id="svg_18" />
    <g id="svg_19" />
    <g id="svg_20" />
    <g id="svg_21" />
    <g id="svg_22" />
    <g id="svg_23" />
    <g id="svg_24" />
    <g id="svg_25" />
    <g id="svg_26" />
    <g id="svg_27" />
    <g id="svg_28" />
    <g id="svg_30">
      <circle
        stroke="#000000"
        id="svg_29"
        r="124.3"
        cy="471.45556"
        cx="226.54444"
        stroke-linecap="null"
        stroke-linejoin="null"
        stroke-dasharray="null"
        stroke-width="9"
        fill="#f5f6f8"
      />
      <text
        stroke="#000000"
        transform="matrix(4.4,0,0,3.3,-521,-865.5) "
        xml:space="preserve"
        text-anchor="middle"
        font-family="serif"
        font-size="24"
        font-weight="bold"
        id="svg_31"
        y="410.77441"
        x="167.19192"
        stroke-linecap="null"
        stroke-linejoin="null"
        stroke-dasharray="null"
        stroke-width="0"
        fill="#ff5666"
      >
        1.
      </text>
    </g>
  </g>
</svg>
