<svg
  width="512"
  height="600"
  xmlns="http://www.w3.org/2000/svg"
  xmlns:svg="http://www.w3.org/2000/svg"
>
  <g>
    <title>Layer 1</title>
    <g id="svg_1">
      <path
        id="svg_2"
        d="m416,32l-80.001,0c-0.007,0 -0.013,0.001 -0.02,0.001c-7.305,-9.709 -18.92,-16.001 -31.979,-16.001l-20.39,0c-5.644,-9.758 -16.129,-16 -27.61,-16s-21.966,6.242 -27.61,16l-20.39,0c-13.059,0 -24.674,6.292 -31.979,16.001c-0.007,0 -0.014,-0.001 -0.021,-0.001l-80,0c-22.056,0 -40,17.944 -40,40l0,400c0,22.056 17.944,40 40,40l320,0c22.056,0 40,-17.944 40,-40l0,-400c0,-22.056 -17.944,-40 -40,-40zm-232,24c0,-13.233 10.767,-24 24,-24l25.47,0c3.385,0 6.404,-2.131 7.538,-5.32c2.27,-6.388 8.295,-10.68 14.992,-10.68s12.722,4.292 14.992,10.68c1.134,3.189 4.153,5.32 7.538,5.32l25.47,0c13.233,0 24,10.767 24,24l0,24l-144,0l0,-24zm256,416c0,13.233 -10.767,24 -24,24l-320,0c-13.233,0 -24,-10.767 -24,-24l0,-400c0,-13.233 10.767,-24 24,-24l72.805,0c-0.527,2.586 -0.805,5.261 -0.805,8l0,32c0,4.418 3.582,8 8,8l160,0c4.418,0 8,-3.582 8,-8l0,-32c0,-2.739 -0.278,-5.414 -0.805,-8l72.805,0c13.233,0 24,10.767 24,24l0,400z"
      />
      <path
        id="svg_3"
        d="m416,64l-48,0c-4.418,0 -8,3.582 -8,8s3.582,8 8,8l40,0l0,280l-80,0c-13.233,0 -24,10.767 -24,24l0,47.999c0,4.418 3.582,8 8,8s8,-3.582 8,-8l0,-47.999c0,-4.411 3.589,-8 8,-8l68.686,0l-88,88l-204.686,0l0,-384l40,0c4.418,0 8,-3.582 8,-8s-3.582,-8 -8,-8l-48,0c-4.418,0 -8,3.582 -8,8l0,400c0,4.418 3.582,8 8,8l216.001,0c0.009,0 0.017,-0.001 0.025,-0.001c0.254,-0.001 0.508,-0.013 0.762,-0.038c0.129,-0.013 0.255,-0.036 0.382,-0.055c0.13,-0.019 0.261,-0.034 0.39,-0.059c0.148,-0.029 0.291,-0.069 0.436,-0.107c0.107,-0.027 0.215,-0.05 0.32,-0.082c0.146,-0.044 0.286,-0.098 0.428,-0.15c0.103,-0.038 0.207,-0.071 0.309,-0.113c0.138,-0.057 0.27,-0.123 0.403,-0.187c0.102,-0.049 0.205,-0.093 0.305,-0.147c0.138,-0.073 0.269,-0.156 0.401,-0.237c0.09,-0.055 0.181,-0.105 0.269,-0.163c0.16,-0.107 0.313,-0.224 0.464,-0.341c0.054,-0.042 0.111,-0.079 0.165,-0.123c0.215,-0.175 0.42,-0.361 0.615,-0.558l103.98,-103.98c0.012,-0.012 0.021,-0.026 0.033,-0.039c0.235,-0.238 0.449,-0.494 0.653,-0.759c0.055,-0.072 0.11,-0.144 0.162,-0.217c0.199,-0.279 0.385,-0.567 0.548,-0.871c0.017,-0.031 0.03,-0.064 0.046,-0.096c0.147,-0.283 0.274,-0.577 0.387,-0.878c0.026,-0.07 0.053,-0.139 0.077,-0.21c0.113,-0.33 0.21,-0.667 0.28,-1.015c0.004,-0.019 0.005,-0.039 0.009,-0.058c0.06,-0.315 0.098,-0.637 0.12,-0.964c0.007,-0.096 0.011,-0.191 0.015,-0.287c0.003,-0.089 0.013,-0.175 0.013,-0.265l0,-296c0.002,-4.418 -3.58,-8 -7.998,-8z"
      />
      <path
        id="svg_4"
        d="m256,32c-2.11,0 -4.17,0.85 -5.66,2.34c-1.49,1.49 -2.34,3.55 -2.34,5.66c0,2.11 0.85,4.17 2.34,5.66c1.49,1.49 3.55,2.34 5.66,2.34c2.1,0 4.17,-0.85 5.66,-2.34c1.49,-1.49 2.34,-3.55 2.34,-5.66c0,-2.11 -0.85,-4.17 -2.34,-5.66c-1.49,-1.49 -3.56,-2.34 -5.66,-2.34z"
      />
      <path
        id="svg_5"
        d="m288,152l80,0c4.418,0 8,-3.582 8,-8s-3.582,-8 -8,-8l-80,0c-4.418,0 -8,3.582 -8,8s3.582,8 8,8z"
      />
      <path
        id="svg_6"
        d="m224,184l144,0c4.418,0 8,-3.582 8,-8s-3.582,-8 -8,-8l-144,0c-4.418,0 -8,3.582 -8,8s3.582,8 8,8z"
      />
      <path
        fill="#ff5666"
        id="svg_7"
        d="m368,232l-224,0c-4.418,0 -8,3.582 -8,8s3.582,8 8,8l224,0c4.418,0 8,-3.582 8,-8s-3.582,-8 -8,-8z"
      />
      <path
        fill="#ff5666"
        id="svg_8"
        d="m368,264l-224,0c-4.418,0 -8,3.582 -8,8s3.582,8 8,8l224,0c4.418,0 8,-3.582 8,-8s-3.582,-8 -8,-8z"
      />
      <path
        fill="#ff5666"
        id="svg_9"
        d="m368,296l-224,0c-4.418,0 -8,3.582 -8,8s3.582,8 8,8l224,0c4.418,0 8,-3.582 8,-8s-3.582,-8 -8,-8z"
      />
      <path
        fill="#ff5666"
        id="svg_10"
        d="m376,336c0,-4.418 -3.582,-8 -8,-8l-224,0c-4.418,0 -8,3.582 -8,8s3.582,8 8,8l224,0c4.418,0 8,-3.582 8,-8z"
      />
      <path
        id="svg_11"
        d="m280,360l-64,0c-4.418,0 -8,3.582 -8,8s3.582,8 8,8l64,0c4.418,0 8,-3.582 8,-8s-3.582,-8 -8,-8z"
      />
      <path
        id="svg_12"
        d="m280,392l-64,0c-4.418,0 -8,3.582 -8,8s3.582,8 8,8l64,0c4.418,0 8,-3.582 8,-8s-3.582,-8 -8,-8z"
      />
      <path
        id="svg_13"
        d="m136,144c0,4.418 3.582,8 8,8l40,0c4.418,0 8,-3.582 8,-8s-3.582,-8 -8,-8l-40,0c-4.418,0 -8,3.582 -8,8z"
      />
      <path
        id="svg_14"
        d="m120,396c0,19.851 16.149,36 36,36s36,-16.149 36,-36s-16.149,-36 -36,-36s-36,16.149 -36,36zm56,0c0,11.028 -8.972,20 -20,20s-20,-8.972 -20,-20s8.972,-20 20,-20s20,8.972 20,20z"
      />
    </g>
    <g id="svg_15">
      <circle
        fill="#f5f6f8"
        stroke-width="9"
        stroke-dasharray="null"
        stroke-linejoin="null"
        stroke-linecap="null"
        cx="264.04938"
        cy="467.45678"
        r="124.33982"
        id="svg_29"
        stroke="#000000"
      />
      <text
        fill="#ff5666"
        stroke-width="0"
        stroke-dasharray="null"
        stroke-linejoin="null"
        stroke-linecap="null"
        x="172.5915"
        y="408.78116"
        id="svg_31"
        font-size="24"
        font-weight="bold"
        font-family="serif"
        text-anchor="middle"
        xml:space="preserve"
        transform="matrix(4.007367460205159,0,0,3.316433906555176,-437.32826740799646,-867.2553961277008) "
        stroke="#000000"
      >
        3.
      </text>
    </g>
  </g>
</svg>
