<svg
  width="512"
  height="600"
  xmlns="http://www.w3.org/2000/svg"
  xmlns:svg="http://www.w3.org/2000/svg"
>
  <g>
    <title>Layer 1</title>
    <g id="svg_1">
      <path
        id="svg_2"
        d="m496.5,414.167l-316.146,0c-3.62,-43.84 -38.679,-78.899 -82.52,-82.52l0,-316.146c0,-8.547 -6.953,-15.5 -15.5,-15.5l-66.834,0c-8.547,0 -15.5,6.953 -15.5,15.5l0,76.396c0,4.143 3.358,7.5 7.5,7.5s7.5,-3.357 7.5,-7.5l0,-76.396c0,-0.275 0.224,-0.5 0.5,-0.5l66.834,0c0.276,0 0.5,0.225 0.5,0.5l0,17.634l-25.634,0c-4.142,0 -7.5,3.357 -7.5,7.5s3.358,7.5 7.5,7.5l25.633,0l0,18.132l-8.808,0c-4.142,0 -7.5,3.357 -7.5,7.5s3.358,7.5 7.5,7.5l8.808,0l0,18.132l-25.633,0c-4.142,0 -7.5,3.357 -7.5,7.5s3.358,7.5 7.5,7.5l25.633,0l0,18.132l-8.808,0c-4.142,0 -7.5,3.357 -7.5,7.5s3.358,7.5 7.5,7.5l8.808,0l0,18.131l-25.633,0c-4.142,0 -7.5,3.357 -7.5,7.5s3.358,7.5 7.5,7.5l25.633,0l0,18.132l-8.808,0c-4.142,0 -7.5,3.357 -7.5,7.5s3.358,7.5 7.5,7.5l8.808,0l0,18.138l-25.633,0c-4.142,0 -7.5,3.357 -7.5,7.5s3.358,7.5 7.5,7.5l25.633,0l0,18.131l-8.808,0c-4.142,0 -7.5,3.357 -7.5,7.5s3.358,7.5 7.5,7.5l8.808,0l0,18.137l-25.633,0c-4.142,0 -7.5,3.357 -7.5,7.5s3.358,7.5 7.5,7.5l25.633,0l0,18.135l-67.833,0l0,-209.439c0,-4.143 -3.358,-7.5 -7.5,-7.5s-7.5,3.357 -7.5,7.5l0,366.038c0,13.27 10.797,24.066 24.067,24.066l149.1,0l323.333,0c8.547,0 15.5,-6.953 15.5,-15.5l0,-66.833c0,-8.547 -6.953,-15.5 -15.5,-15.5zm-481.5,73.767l0,-141.601l75.334,0c41.539,0 75.333,33.794 75.333,75.333l0,0.001l0,75.333l-141.6,0c-4.999,0 -9.067,-4.067 -9.067,-9.066zm482,8.566c0,0.275 -0.224,0.5 -0.5,0.5l-315.833,0l0,-67.833l18.134,0l0,25.633c0,4.143 3.358,7.5 7.5,7.5s7.5,-3.357 7.5,-7.5l0,-25.633l18.132,0l0,8.808c0,4.143 3.358,7.5 7.5,7.5s7.5,-3.357 7.5,-7.5l0,-8.808l18.131,0l0,25.633c0,4.143 3.358,7.5 7.5,7.5s7.5,-3.357 7.5,-7.5l0,-25.633l18.132,0l0,8.808c0,4.143 3.358,7.5 7.5,7.5s7.5,-3.357 7.5,-7.5l0,-8.808l18.131,0l0,25.633c0,4.143 3.358,7.5 7.5,7.5s7.5,-3.357 7.5,-7.5l0,-25.633l18.132,0l0,8.808c0,4.143 3.358,7.5 7.5,7.5s7.5,-3.357 7.5,-7.5l0,-8.808l18.138,0l0,25.633c0,4.143 3.358,7.5 7.5,7.5s7.5,-3.357 7.5,-7.5l0,-25.633l18.13,0l0,8.808c0,4.143 3.358,7.5 7.5,7.5s7.5,-3.357 7.5,-7.5l0,-8.808l18.137,0l0,25.633c0,4.143 3.358,7.5 7.5,7.5s7.5,-3.357 7.5,-7.5l0,-25.633l17.636,0c0.276,0 0.5,0.225 0.5,0.5l0,66.833z"
        fill="black"
      />
      <path
        id="svg_3"
        d="m90.334,397.6c-13.271,0 -24.066,10.796 -24.066,24.066c0,13.271 10.796,24.066 24.066,24.066s24.066,-10.796 24.066,-24.066s-10.796,-24.066 -24.066,-24.066zm0,33.132c-4.999,0 -9.066,-4.067 -9.066,-9.066s4.067,-9.066 9.066,-9.066s9.066,4.067 9.066,9.066s-4.067,9.066 -9.066,9.066z"
      />
      <path
        id="svg_4"
        d="m90.334,364.467c-31.54,0 -57.2,25.659 -57.2,57.199s25.66,57.2 57.2,57.2s57.2,-25.66 57.2,-57.2c-0.001,-31.54 -25.66,-57.199 -57.2,-57.199zm0,99.399c-23.269,0 -42.2,-18.931 -42.2,-42.2c0,-23.268 18.931,-42.199 42.2,-42.199s42.2,18.931 42.2,42.199c-0.001,23.269 -18.931,42.2 -42.2,42.2z"
      />
      <path
        id="svg_5"
        d="m214.864,143.605c1.772,0 3.551,-0.624 4.98,-1.895l21.447,-19.063c3.096,-2.752 3.375,-7.492 0.623,-10.588s-7.493,-3.377 -10.588,-0.623l-21.448,19.064c-3.096,2.752 -3.374,7.492 -0.622,10.588c1.481,1.667 3.539,2.517 5.608,2.517z"
        fill="#ff5666"
      />
      <path
        id="svg_6"
        d="m261.542,102.113c1.772,0 3.551,-0.624 4.98,-1.894l21.447,-19.064c3.096,-2.752 3.374,-7.492 0.622,-10.588s-7.493,-3.377 -10.588,-0.623l-21.447,19.063c-3.096,2.752 -3.374,7.492 -0.623,10.588c1.482,1.668 3.54,2.518 5.609,2.518z"
        fill="#ff5666"
      />
      <path
        id="svg_7"
        d="m173.167,180.667l17.603,0c4.142,0 7.5,-3.357 7.5,-7.5c0,-3.576 -2.503,-6.568 -5.853,-7.318c2.005,-2.787 1.888,-6.686 -0.488,-9.358c-2.752,-3.096 -7.492,-3.378 -10.588,-0.623l-13.156,11.694c-2.327,2.068 -3.134,5.36 -2.027,8.271c1.105,2.91 3.895,4.834 7.009,4.834z"
        fill="#ff5666"
      />
      <path
        id="svg_8"
        d="m271.04,173.167c0,-4.143 -3.358,-7.5 -7.5,-7.5l-32.807,0c-4.142,0 -7.5,3.357 -7.5,7.5s3.358,7.5 7.5,7.5l32.807,0c4.142,0 7.5,-3.357 7.5,-7.5z"
        fill="#ff5666"
      />
      <path
        id="svg_9"
        d="m300.523,362.9l14.244,0l0,18.133l-9.067,0c-4.142,0 -7.5,3.357 -7.5,7.5s3.358,7.5 7.5,7.5l33.133,0c4.142,0 7.5,-3.357 7.5,-7.5s-3.358,-7.5 -7.5,-7.5l-9.067,0l0,-18.133l35.483,0c4.142,0 7.5,-3.357 7.5,-7.5s-3.358,-7.5 -7.5,-7.5l-35.483,0l0,-167.233l100.967,0l0,167.233l-35.483,0c-4.142,0 -7.5,3.357 -7.5,7.5s3.358,7.5 7.5,7.5l42.983,0c4.142,0 7.5,-3.357 7.5,-7.5l0,-174.733l25.633,0c3.114,0 5.904,-1.924 7.01,-4.835c1.107,-2.91 0.3,-6.202 -2.027,-8.271l-146.582,-130.296l0,-22.265l9.066,0c4.142,0 7.5,-3.357 7.5,-7.5s-3.358,-7.5 -7.5,-7.5l-33.133,0c-4.142,0 -7.5,3.357 -7.5,7.5s3.358,7.5 7.5,7.5l9.067,0l0,22.264l-10.639,9.457c-3.096,2.752 -3.375,7.492 -0.622,10.588c1.482,1.668 3.54,2.517 5.608,2.517c1.772,0 3.551,-0.625 4.98,-1.895l0.673,-0.599l0,108.333l-10.102,0c-4.142,0 -7.5,3.357 -7.5,7.5s3.358,7.5 7.5,7.5l10.102,0l0,167.235l-14.244,0c-4.142,0 -7.5,3.357 -7.5,7.5s3.358,7.5 7.5,7.5zm151.117,-197.233l-121.873,0l0,-108.332l121.873,108.332z"
      />
      <path
        id="svg_10"
        d="m254.009,362.9l21.304,0c4.142,0 7.5,-3.357 7.5,-7.5s-3.358,-7.5 -7.5,-7.5l-21.304,0c-4.142,0 -7.5,3.357 -7.5,7.5s3.357,7.5 7.5,7.5z"
      />
      <path
        fill="#ff5666"
        id="svg_11"
        d="m206.3,362.9l21.744,0c4.142,0 7.5,-3.357 7.5,-7.5s-3.358,-7.5 -7.5,-7.5l-14.244,0l0,-14.244c0,-4.143 -3.358,-7.5 -7.5,-7.5s-7.5,3.357 -7.5,7.5l0,21.744c0,4.143 3.358,7.5 7.5,7.5z"
      />
      <path
        id="svg_12"
        d="m206.3,301.54c4.142,0 7.5,-3.357 7.5,-7.5l0,-33.479c0,-4.143 -3.358,-7.5 -7.5,-7.5s-7.5,3.357 -7.5,7.5l0,33.479c0,4.143 3.358,7.5 7.5,7.5z"
        fill="#ff5666"
      />
      <path
        id="svg_13"
        d="m206.3,227.261c4.142,0 7.5,-3.357 7.5,-7.5l0,-21.744c0,-4.143 -3.358,-7.5 -7.5,-7.5s-7.5,3.357 -7.5,7.5l0,21.744c0,4.142 3.358,7.5 7.5,7.5z"
        fill="#ff5666"
      />
    </g>
    <g id="svg_30">
      <circle
        fill="#f5f6f8"
        stroke-width="9"
        stroke-dasharray="null"
        stroke-linejoin="null"
        stroke-linecap="null"
        cx="261.67901"
        cy="469.82716"
        r="124.33982"
        id="svg_29"
        stroke="#000000"
      />
      <text
        fill="#ff5666"
        stroke-width="0"
        stroke-dasharray="null"
        stroke-linejoin="null"
        stroke-linecap="null"
        x="172"
        y="409.4959"
        id="svg_31"
        font-size="24"
        font-weight="bold"
        font-family="serif"
        text-anchor="middle"
        xml:space="preserve"
        transform="matrix(4.007367460205159,0,0,3.316433906555176,-437.32826740799646,-867.2553961277008) "
        stroke="#000000"
      >
        2.
      </text>
    </g>
  </g>
</svg>
