<svg
  width="512"
  height="600"
  xmlns="http://www.w3.org/2000/svg"
  xmlns:svg="http://www.w3.org/2000/svg"
>
  <g>
    <title>Layer 1</title>
    <g stroke="null" id="svg_1">
      <g stroke="null" id="svg_2">
        <path
          stroke="null"
          fill="black"
          d="m390.22057,404.84556c-17.46549,0 -28.10953,-4.23432 -32.54747,-12.93003c-4.53141,-8.88185 -0.17331,-18.02554 1.40012,-20.81161c19.01946,-51.28238 0.48099,-71.65419 0.29404,-71.84237c-1.88696,-1.88397 -2.59967,-4.71299 -1.84021,-7.31495c12.55436,-42.75645 -9.68401,-59.90853 -14.78015,-63.19372l-73.53267,-5.10165c-1.4235,-0.09819 -2.79245,-0.67299 -3.89853,-1.62827l-50.08696,-43.57673c-0.64262,3.14608 -3.25397,5.53939 -6.43783,5.656c0,0 -15.65448,0.56253 -17.55702,0.56253c-21.29976,0 -38.62505,-17.41597 -38.62505,-38.83101c0,-18.90718 13.48518,-34.97307 32.04701,-38.18257c0.32131,-0.05932 0.64067,-0.09409 0.96002,-0.10228l22.79336,-0.54617c1.49359,-0.16569 3.60254,0.68936 4.92477,2.04352c0.56667,0.58094 1.02624,1.26416 1.36702,1.99238c32.9272,-14.96537 66.83974,-22.55034 100.86523,-22.55034c47.68787,0 80.30935,14.84673 87.66047,18.53284c34.37211,0.78754 62.06881,26.64351 62.06881,58.30481c0,18.81717 -9.61196,35.99789 -25.97722,46.96419l0.61146,1.97397c21.97938,70.97302 25.45729,119.02953 10.6752,146.91879c-0.86461,1.616 -1.69222,3.33836 -2.54514,5.10165c-3.06508,6.35558 -6.54494,13.56825 -12.66925,19.98724c-14.52115,15.22515 -43.2694,18.40398 -44.49621,18.5308c-0.21421,0.02863 -0.44594,0.04296 -0.67377,0.04296l-0.00002,0.00002zm-18.60662,-112.41007c6.13016,8.98822 18.41968,35.2124 -0.05257,84.50034c-0.17916,0.46843 -0.40504,0.92459 -0.66598,1.35212c-0.51994,0.83868 -2.33288,4.66798 -1.17812,6.88743c1.33196,2.54673 7.32971,5.27757 20.1528,5.3328c7.24402,-0.83868 26.84767,-4.90527 35.88518,-14.37829c4.58399,-4.80912 7.41149,-10.65332 10.13579,-16.32363c0.93861,-1.93715 1.84606,-3.81499 2.77882,-5.5844c12.66925,-23.88609 8.72983,-69.47157 -11.71507,-135.50453l-2.33094,-7.48269c-1.03986,-3.32404 0.37194,-6.95697 3.32407,-8.57706c14.82688,-8.13113 23.68328,-22.07985 23.68328,-37.31934c0,-24.25634 -22.45063,-43.99402 -50.03828,-43.99402c-1.09439,0 -2.17321,-0.27615 -3.14492,-0.80187c-0.32715,-0.17183 -33.14724,-17.70438 -82.88759,-17.70438c-31.93212,0 -63.80777,7.08789 -94.80907,21.08162c-0.07984,2.79425 -1.7,5.29597 -4.16142,6.39444c-2.53151,1.12301 -5.44471,0.54207 -7.40954,-1.45645c-1.13918,-1.16188 -2.51789,-2.26853 -4.23152,-3.39155c-1.41181,-0.92459 -2.42831,-2.34423 -2.9054,-3.96431l-15.60775,0.37434c-11.72285,2.24398 -20.17811,12.2509 -20.17811,23.96178c0,13.50688 11.20486,24.49362 24.9763,24.49362c1.0496,0 6.41446,-0.17796 10.86214,-0.33547c0.49851,-1.54645 1.49554,-2.88834 2.85087,-3.7843c1.71364,-1.12097 3.09234,-2.22967 4.23152,-3.39155c1.96485,-2.00466 4.87803,-2.59377 7.40954,-1.45645c0.81398,0.36002 1.53644,0.87551 2.13621,1.49735l53.59798,46.63893l72.8589,5.04641c0.88602,0.06342 1.75064,0.3007 2.54709,0.7139c0.39725,0.19638 38.627,20.55591 23.8858,77.17517l0.00001,0z"
          id="svg_3"
        />
      </g>
      <g stroke="null" id="svg_4">
        <path
          stroke="null"
          d="m312.87894,168.51705l-35.25424,0c-3.7739,0 -6.82535,-3.20132 -6.82535,-7.16767c0,-3.96226 3.05145,-7.16767 6.82535,-7.16767l35.25424,0c3.77196,0 6.8234,3.2054 6.8234,7.16767c0,3.96636 -3.05339,7.16767 -6.8234,7.16767z"
          id="svg_5"
        />
      </g>
      <g stroke="null" id="svg_6">
        <path
          stroke="null"
          d="m312.87894,190.02211l-35.25424,0c-3.7739,0 -6.82535,-3.20132 -6.82535,-7.16767c0,-3.96226 3.05145,-7.16767 6.82535,-7.16767l35.25424,0c3.77196,0 6.8234,3.2054 6.8234,7.16767c0,3.96431 -3.05339,7.16767 -6.8234,7.16767z"
          id="svg_7"
        />
      </g>
      <g stroke="null" id="svg_8">
        <path
          stroke="null"
          d="m312.87894,211.52716l-35.25424,0c-3.7739,0 -6.82535,-3.20336 -6.82535,-7.16767c0,-3.96226 3.05145,-7.16767 6.82535,-7.16767l35.25424,0c3.77196,0 6.8234,3.2054 6.8234,7.16767c0,3.96431 -3.05339,7.16767 -6.8234,7.16767z"
          id="svg_9"
        />
      </g>
      <g stroke="null" id="svg_10">
        <path
          stroke="null"
          d="m159.43613,152.99733l-107.57569,0c-3.77196,0 -6.8234,-3.20132 -6.8234,-7.16767c0,-3.96226 3.05145,-7.16767 6.8234,-7.16767l107.57374,0c3.7739,0 6.8234,3.2054 6.8234,7.16767c0.00195,3.96636 -3.04755,7.16767 -6.82146,7.16767l0.00001,0z"
          id="svg_11"
        />
      </g>
      <g stroke="null" id="svg_12">
        <path
          stroke="null"
          d="m365.88494,294.12923c-0.61341,0 -1.22681,-0.08387 -1.84606,-0.26592l-22.84983,-6.734c-3.47986,-1.02278 -5.58491,-4.70481 -4.82545,-8.4216c6.51767,-31.59175 -13.81622,-52.89224 -14.02069,-53.0968c-2.70677,-2.77174 -2.75351,-7.31495 -0.12657,-10.13988c2.64446,-2.83925 6.96361,-2.87606 9.64897,-0.12888c1.00676,1.03302 23.13219,24.20725 18.92015,59.72649l16.93193,4.98914c3.6259,1.06574 5.75043,5.02801 4.72614,8.8348c-0.8354,3.16653 -3.58111,5.23665 -6.55857,5.23665l-0.00001,-0.00001z"
          id="svg_13"
        />
      </g>
      <g stroke="null" id="svg_14">
        <path
          stroke="null"
          fill="#ff5666"
          d="m115.55527,408.05915l-41.50708,0c-3.7739,0 -6.8234,-3.19722 -6.8234,-7.16767l0,-357.81886c0,-3.96226 3.0495,-7.16767 6.8234,-7.16767l41.50708,0c3.7739,0 6.8234,3.2054 6.8234,7.16767l0,357.81886c0.00389,3.9684 -3.04755,7.16767 -6.8234,7.16767zm-34.68173,-14.33533l27.86222,0l0,-343.48352l-27.86222,0l0,343.48352z"
          id="svg_15"
        />
      </g>
      <g stroke="null" id="svg_16" />
    </g>
    <g id="svg_17">
      <circle
        fill="#f5f6f8"
        stroke-width="9"
        stroke-dasharray="null"
        stroke-linejoin="null"
        stroke-linecap="null"
        cx="250"
        cy="467.45679"
        r="124.33982"
        id="svg_29"
        stroke="#000000"
      />
      <text
        fill="#ff5666"
        stroke-width="0"
        stroke-dasharray="null"
        stroke-linejoin="null"
        stroke-linecap="null"
        x="168"
        y="409"
        id="svg_31"
        font-size="24"
        font-weight="bold"
        font-family="serif"
        text-anchor="middle"
        xml:space="preserve"
        transform="matrix(4.007367460205159,0,0,3.316433906555176,-437.32826740799646,-867.2553961277008) "
        stroke="#000000"
      >
        5.
      </text>
    </g>
  </g>
</svg>
