<svg
  width="496"
  height="600"
  xmlns="http://www.w3.org/2000/svg"
  xmlns:svg="http://www.w3.org/2000/svg"
>
  <g>
    <title>Layer 1</title>
    <g id="svg_1">
      <g id="svg_2">
        <g id="svg_3">
          <path
            id="svg_4"
            d="m96,82.37037l0,-32c0,-26.472 -21.528,-48 -48,-48s-48,21.528 -48,48l0,304c0,26.472 21.528,48 48,48l352,0l0,64c0,17.648 14.352,32 32,32s32,-14.352 32,-32l0,-64l32,0l0,-320l-400,0zm-48,304c-17.648,0 -32,-14.352 -32,-32s14.352,-32 32,-32s32,14.352 32,32s-14.352,32 -32,32zm32,-67.68c-8.504,-7.632 -19.696,-12.32 -32,-12.32s-23.496,4.688 -32,12.32l0,-268.32c0,-17.648 14.352,-32 32,-32s32,14.352 32,32l0,268.32zm368,147.68c0,8.824 -7.176,16 -16,16c-8.824,0 -16,-7.176 -16,-16l0,-16l32,0l0,16zm0,-32l-32,0l0,-16l32,0l0,16zm0,-32l-32,0l0,-232l32,0l0,232zm-30.672,-248l14.672,-24.456l14.672,24.456l-29.344,0zm62.672,232l-16,0l0,-234.216l-32,-53.328l-32,53.328l0,234.216l-316.32,0c7.632,-8.504 12.32,-19.696 12.32,-32l0,-256l384,0l0,288z"
          />
          <path
            fill="#ff5666"
            id="svg_5"
            d="m136,282.37037c13.232,0 24,-10.768 24,-24c0,-10.24 -6.48,-18.936 -15.528,-22.376c3.136,-23.456 23.224,-41.624 47.528,-41.624c18.68,0 35.6,11.088 43.4,27.664c-6.816,4.24 -11.4,11.736 -11.4,20.336c0,12.136 9.088,22.088 20.792,23.672c9.624,23.968 33.048,40.328 59.208,40.328c33.048,0 60.32,-25.184 63.656,-57.368c9.464,-3.216 16.344,-12.088 16.344,-22.632c0,-13.232 -10.768,-24 -24,-24s-24,10.768 -24,24c0,10.24 6.48,18.936 15.528,22.376c-3.136,23.456 -23.224,41.624 -47.528,41.624c-18.68,0 -35.6,-11.088 -43.4,-27.664c6.816,-4.24 11.4,-11.736 11.4,-20.336c0,-12.136 -9.088,-22.088 -20.792,-23.672c-9.624,-23.968 -33.048,-40.328 -59.208,-40.328c-33.048,0 -60.32,25.184 -63.656,57.368c-9.464,3.216 -16.344,12.088 -16.344,22.632c0,13.232 10.768,24 24,24zm224,-64c4.416,0 8,3.584 8,8s-3.584,8 -8,8c-4.416,0 -8,-3.584 -8,-8s3.584,-8 8,-8zm-112,16c4.416,0 8,3.584 8,8s-3.584,8 -8,8c-4.416,0 -8,-3.584 -8,-8s3.584,-8 8,-8zm-112,16c4.416,0 8,3.584 8,8c0,4.416 -3.584,8 -8,8s-8,-3.584 -8,-8c0,-4.416 3.584,-8 8,-8z"
          />
          <rect id="svg_6" height="16" width="16" y="290.37037" x="240" />
          <rect id="svg_7" height="16" width="16" y="322.37037" x="240" />
          <rect id="svg_8" height="16" width="16" y="354.37037" x="240" />
          <rect id="svg_9" height="16" width="16" y="114.37037" x="240" />
          <rect id="svg_10" height="16" width="16" y="146.37037" x="240" />
          <rect id="svg_11" height="16" width="16" y="178.37037" x="240" />
        </g>
      </g>
      <g id="svg_12">
        <circle
          fill="#f5f6f8"
          stroke-width="9"
          stroke-dasharray="null"
          stroke-linejoin="null"
          stroke-linecap="null"
          cx="250"
          cy="467.45679"
          r="124.33982"
          id="svg_29"
          stroke="#000000"
        />
        <text
          fill="#ff5666"
          stroke-width="0"
          stroke-dasharray="null"
          stroke-linejoin="null"
          stroke-linecap="null"
          x="168"
          y="409"
          id="svg_31"
          font-size="24"
          font-weight="bold"
          font-family="serif"
          text-anchor="middle"
          xml:space="preserve"
          transform="matrix(4.007367460205159,0,0,3.316433906555176,-437.32826740799646,-867.2553961277008) "
          stroke="#000000"
        >
          4.
        </text>
      </g>
    </g>
  </g>
</svg>
