<svg
  width="442"
  height="600"
  xmlns="http://www.w3.org/2000/svg"
  xmlns:svg="http://www.w3.org/2000/svg"
>
  <g>
    <title>Layer 1</title>
    <g stroke="null" id="svg_1">
      <path
        fill="#ff5666"
        d="m235.54804,151.04095c-3.18169,3.20897 -3.18169,8.41021 0.00163,11.61918s8.34378,3.20815 11.52546,-0.00164l6.7293,-6.786c2.42049,-2.44082 3.07003,-6.14601 1.62507,-9.2753c-4.49055,-9.72715 -6.7676,-19.79032 -6.7676,-29.91099c0,-20.60365 8.89715,-40.00948 23.90421,-53.41717l0.02608,53.77948c0.00081,2.69386 1.31293,5.21684 3.51012,6.75068l38.6676,26.9912c2.78968,1.94707 6.48562,1.94872 9.27612,0.00164l38.68145,-26.97723c2.20045,-1.53466 3.51338,-4.05928 3.51338,-6.75725l-0.0057,-53.77619c15.00543,13.39537 23.9034,32.78559 23.90829,53.37199c0,19.05174 -7.35846,36.96399 -20.7209,50.43659c-13.35184,13.46274 -31.09887,20.87394 -49.97872,20.87394c-0.01793,0 -0.03667,0 -0.05542,0c-6.49621,-0.00493 -19.24823,-3.17529 -23.61408,-4.39694c-2.83043,-0.79362 -5.86705,0.01232 -7.94444,2.10563l-24.77706,24.97758c-3.1825,3.20815 -3.1825,8.41021 0,11.61918c1.59166,1.60367 3.6772,2.40632 5.76273,2.40632s4.17189,-0.80265 5.76273,-2.40632l21.4772,-21.65113c5.98767,1.49276 16.28006,3.77174 23.31987,3.77666c0.02445,0 0.04482,0 0.06846,0c23.23104,-0.00082 45.07416,-9.12249 61.50418,-25.68822c16.4398,-16.57559 25.49343,-38.61284 25.49343,-62.05495c-0.00733,-31.57545 -17.00295,-60.85549 -44.35372,-76.41482c-2.52318,-1.43525 -5.61278,-1.41307 -8.11558,0.05997c-2.50199,1.47304 -4.04068,4.1743 -4.03986,7.09573l0.00652,65.36004l-30.52919,21.29129l-30.5186,-21.30525l-0.03178,-65.36497c-0.00163,-2.92061 -1.54113,-5.62104 -4.04312,-7.09244c-2.50199,-1.47222 -5.59159,-1.49276 -8.11477,-0.05669c-27.34832,15.5733 -44.33742,44.87141 -44.33742,76.46083c0,10.67029 2.02115,21.24035 6.01701,31.50069l-2.83287,2.85489z"
        id="svg_2"
      />
      <path
        stroke="null"
        fill="#ff5666"
        d="m213.96816,260.13292l-113.05582,113.97115c-4.2485,4.2852 -9.89632,6.64634 -15.90273,6.65045c-0.00407,0 -0.00733,0 -0.01222,0c-6.00478,-0.00082 -11.65342,-2.36031 -15.9011,-6.64223c-4.24687,-4.28603 -6.5826,-9.98676 -6.57527,-16.05391c0.00652,-6.04907 2.34633,-11.72762 6.5989,-16.00051l97.24274,-98.03555c3.1825,-3.20815 3.1825,-8.40938 0,-11.61836c-3.1825,-3.20733 -8.34296,-3.20815 -11.52546,0.00082l-97.23214,98.02569c-7.32831,7.36191 -11.37062,17.16711 -11.38284,27.60901c-0.01222,10.45915 4.01623,20.29146 11.34617,27.6887c7.32994,7.38902 17.0706,11.45733 27.42901,11.45733c0.00733,0 0.01467,0 0.02119,0c10.35923,-0.00575 20.09825,-4.07817 27.42167,-11.46473l113.05337,-113.96869c3.1825,-3.20815 3.1825,-8.41021 0,-11.61918c-3.18332,-3.20733 -8.34296,-3.20733 -11.52546,0z"
        id="svg_3"
      />
      <path
        stroke="null"
        fill="#ff5666"
        d="m84.88166,348.08312c-2.68455,0.00164 -5.2061,1.05898 -7.06752,2.94526c-3.91761,3.92454 -3.93717,10.33756 -0.04401,14.29333c0.00978,0.01068 0.01956,0.01972 0.02934,0.0304c1.95188,1.96268 4.51418,2.94526 7.08056,2.94526c2.57208,0 5.14824,-0.9875 7.11479,-2.9658c3.9005,-3.95083 3.88909,-10.36385 -0.00896,-14.281c-1.89483,-1.91421 -4.41475,-2.96744 -7.09767,-2.96744c-0.00163,0 -0.00407,0 -0.00652,0z"
        id="svg_4"
      />
      <path
        fill="black"
        stroke="null"
        d="m351.33568,306.43547c-0.84432,-0.8503 -1.86305,-1.50344 -2.98446,-1.91421l-23.37121,-8.54248l-84.42227,-85.10435l13.64523,-13.75439c3.1825,-3.20815 3.18332,-8.41021 0,-11.61918c-2.4156,-2.43343 -5.96974,-3.02166 -8.93464,-1.7614l-127.69288,-128.70729c-7.72276,-7.81047 -18.00782,-12.11868 -28.96036,-12.13183c-0.0163,0 -0.03097,0 -0.04727,0c-10.95253,0 -21.24737,4.29342 -28.99377,12.09321c-7.75618,7.81869 -12.02423,18.20965 -12.01771,29.2595c0.0057,11.04081 4.27702,21.42191 12.02505,29.22828l127.69451,128.71797c-1.25018,2.98798 -0.66828,6.57076 1.74732,9.00583c3.18332,3.20733 8.34378,3.20897 11.52546,0l13.64197,-13.75192l84.42308,85.10271l8.47499,23.56041c0.40668,1.13045 1.05459,2.15821 1.89891,3.00852l47.36997,47.75094c1.59166,1.60367 3.6772,2.40632 5.76273,2.40632s4.17189,-0.80265 5.76273,-2.40632l30.82177,-31.0702c1.52809,-1.54123 2.38708,-3.63043 2.38708,-5.80918s-0.85899,-4.26795 -2.38708,-5.80918l-47.36915,-47.75177zm-128.06777,-101.37022c-0.01711,0.01725 -0.03504,0.03615 -0.05216,0.0534l-24.83655,25.03673l-127.27398,-128.29405c-4.67147,-4.70666 -7.246,-10.96276 -7.24926,-17.61649c-0.00326,-6.65784 2.56882,-12.91969 7.24029,-17.62882c4.66577,-4.69844 10.8694,-7.28386 17.47157,-7.28386c0.00978,0 0.01956,0 0.02852,0c6.59564,0.00739 12.78624,2.60021 17.44304,7.30933l127.27968,128.29241l-9.99819,10.07877c-0.01711,0.01725 -0.03504,0.03451 -0.05297,0.05258zm138.85242,174.383l-40.32527,-40.65029l-8.47499,-23.56041c-0.40668,-1.13045 -1.05459,-2.15821 -1.89891,-3.00852l-85.70423,-86.39419l3.31534,-3.34124l85.70342,86.39501c0.84432,0.8503 1.86305,1.50344 2.98446,1.91421l23.37121,8.54248l40.32527,40.65029l-19.29631,19.45266z"
        id="svg_5"
      />
      <path
        stroke="null"
        d="m94.29062,78.38637c-3.1825,-3.20733 -8.34296,-3.20733 -11.52546,0c-3.1825,3.20815 -3.1825,8.41021 0,11.61918l112.42747,113.33281c1.59084,1.60367 3.6772,2.40632 5.76273,2.40632s4.17189,-0.80265 5.76273,-2.40632c3.1825,-3.20815 3.1825,-8.41021 0,-11.61918l-112.42747,-113.33281z"
        id="svg_6"
      />
    </g>
    <g id="svg_7">
      <g id="svg_8">
        <circle
          stroke="#000000"
          id="svg_29"
          r="124.33982"
          cy="472.19753"
          cx="227.90123"
          stroke-linecap="null"
          stroke-linejoin="null"
          stroke-dasharray="null"
          stroke-width="9"
          fill="#f5f6f8"
        />
        <text
          stroke="#000000"
          transform="matrix(4.007367460205159,0,0,3.316433906555176,-437.32826740799646,-867.2553961277008) "
          xml:space="preserve"
          text-anchor="middle"
          font-family="serif"
          font-size="24"
          font-weight="bold"
          id="svg_31"
          y="410.21063"
          x="162"
          stroke-linecap="null"
          stroke-linejoin="null"
          stroke-dasharray="null"
          stroke-width="0"
          fill="#ff5666"
        >
          6.
        </text>
      </g>
    </g>
  </g>
</svg>
