<svg
  xmlns="http://www.w3.org/2000/svg"
  viewBox="0 0 512 512"
  width="100"
  height="100"
>
  <!-- Created with SVG-edit - http://svg-edit.googlecode.com/ -->
  <g>
    <path
      d="m128.457,279.052c4.142,0 7.5,-3.358 7.5,-7.5c-0.343,-9.928 -14.658,-9.926 -15,0c0.001,4.142 3.358,7.5 7.5,7.5z"
    />
    <path
      d="m120.448,242.051c4.142,0 7.5,-3.358 7.5,-7.5c-0.343,-9.928 -14.658,-9.926 -15,0c0,4.142 3.358,7.5 7.5,7.5z"
    />
    <path
      d="m125.778,196.331c0,-4.142 -3.358,-7.5 -7.5,-7.5c-9.928,0.343 -9.926,14.658 0,15c4.142,0 7.5,-3.358 7.5,-7.5z"
    />
    <path
      d="m375.868,271.552c0,4.142 3.358,7.5 7.5,7.5c9.928,-0.343 9.926,-14.658 0,-15c-4.142,0 -7.5,3.358 -7.5,7.5z"
    />
    <path
      d="m398.877,234.551c0,-4.142 -3.358,-7.5 -7.5,-7.5c-9.928,0.343 -9.926,14.658 0,15c4.143,0 7.5,-3.358 7.5,-7.5z"
    />
    <path
      d="m393.547,188.831c-4.142,0 -7.5,3.358 -7.5,7.5c0.343,9.928 14.658,9.926 15,0c0,-4.142 -3.358,-7.5 -7.5,-7.5z"
    />
    <path
      d="m491.199,412.108c17.445,-22.489 20.637,-57.533 20.773,-59.132c0.351,-4.093 -2.658,-7.707 -6.747,-8.104c-0.834,-0.081 -18.768,-1.792 -44.327,-1.76c1.74,-10.711 2.399,-17.423 2.473,-18.209c0.188,-1.983 -0.421,-3.959 -1.692,-5.493s-3.1,-2.499 -5.083,-2.683c-0.098,-0.009 -1.271,-0.116 -3.43,-0.299c28.126,-75.661 22.592,-184.244 9.089,-233.214c-0.994,-3.753 -4.693,-6.129 -8.513,-5.474c-61.194,10.453 -111.892,1.322 -150.682,-27.14c-28.91,-21.213 -40.103,-45.903 -40.206,-46.133c-2.493,-5.927 -11.246,-5.925 -13.738,0c-0.291,0.665 -30.187,66.583 -121.448,76.223c-4.119,0.435 -7.105,4.127 -6.671,8.247c0.436,4.118 4.121,7.104 8.247,6.67c52.025,-5.496 85.487,-28.155 104.396,-46.196c10.412,-9.934 17.664,-19.546 22.34,-26.737c39.898,61.741 118.42,83.414 193.305,70.967c2.409,11.142 6.987,35.607 8.704,67.295c2.109,38.9 0.201,96.757 -20.287,154.271c-5.758,-0.426 -12.726,-0.915 -20.757,-1.43c7.519,-19.965 13.157,-41.513 16.792,-64.208c0.655,-4.09 -2.129,-7.937 -6.219,-8.592c-4.105,-0.651 -7.938,2.13 -8.592,6.219c-3.743,23.36 -9.689,45.41 -17.692,65.627c-69.644,-5.313 -220.849,-5.314 -290.495,0c-22.751,-52.503 -26.231,-135.265 -18.915,-181.25c4.197,0.177 8.369,0.267 12.468,0.267c65.366,-0.001 109.55,-22.615 135.105,-41.585c5.77,-4.284 11.327,-8.905 16.586,-13.791c5.256,4.884 10.811,9.505 16.585,13.792c25.559,18.971 69.745,41.586 135.105,41.584c4.123,0 8.319,-0.09 12.539,-0.27c2.628,20.645 4.801,50.118 2.435,83.24c-0.296,4.132 2.814,7.72 6.946,8.016c4.131,0.302 7.72,-2.815 8.015,-6.946c2.735,-38.28 -0.378,-71.835 -3.472,-93.244c-0.56,-3.875 -4.009,-6.678 -7.912,-6.411c-6.238,0.408 -12.479,0.615 -18.551,0.615c-61.262,0.001 -102.423,-21.006 -126.164,-38.629c-7.164,-5.318 -13.965,-11.194 -20.214,-17.464c-2.794,-2.917 -7.83,-2.917 -10.624,0c-6.254,6.274 -13.056,12.15 -20.216,17.465c-23.738,17.622 -64.896,38.627 -126.164,38.629c-6.047,0 -12.267,-0.205 -18.486,-0.61c-3.909,-0.252 -7.355,2.542 -7.911,6.42c-4.393,30.63 -7.837,77.897 0.694,129.135c3.644,21.874 9.163,42.678 16.439,61.994c-8.034,0.515 -15.005,1.004 -20.764,1.43c-20.485,-57.517 -22.392,-115.374 -20.283,-154.273c1.717,-31.691 6.295,-56.157 8.704,-67.296c11.191,1.664 22.165,2.695 32.711,3.07c4.104,0.162 7.615,-3.088 7.762,-7.229c0.147,-4.14 -3.089,-7.615 -7.229,-7.762c-12.065,-0.43 -24.75,-1.769 -37.701,-3.981c-3.821,-0.655 -7.52,1.72 -8.513,5.474c-13.513,49.321 -19.06,157.22 9.089,233.214c-2.159,0.183 -3.332,0.29 -3.429,0.299c-1.983,0.184 -3.812,1.149 -5.083,2.683c-1.271,1.533 -1.88,3.51 -1.692,5.493c0.074,0.786 0.734,7.498 2.474,18.209c-25.543,-0.03 -43.464,1.679 -44.298,1.76c-4.089,0.397 -7.098,4.01 -6.747,8.104c0.137,1.599 3.327,36.643 20.772,59.132c-17.445,22.49 -20.636,57.534 -20.772,59.133c-0.349,4.071 2.627,7.672 6.69,8.098c1.588,0.167 27.023,2.773 60.884,2.772c17.464,0 37.171,-0.693 56.999,-2.772c2.25,-0.236 4.272,-1.477 5.506,-3.374c1.232,-1.897 1.543,-4.251 0.845,-6.403c-0.052,-0.159 -4.408,-13.724 -5.672,-27.271c4.227,-0.307 8.758,-0.619 13.571,-0.93c12.142,11.361 25.482,21.958 39.696,31.533c3.391,2.297 8.082,1.43 10.41,-2.031c2.313,-3.436 1.404,-8.096 -2.031,-10.411c-9.409,-6.338 -18.412,-13.142 -26.905,-20.329c9.55,-0.502 19.849,-0.968 30.785,-1.361c18.537,13.312 39.455,25.013 62.218,34.799c1.89,0.813 4.033,0.813 5.924,0c22.767,-9.786 43.687,-21.487 62.225,-34.798c10.932,0.392 21.227,0.858 30.775,1.36c-27.033,22.858 -59.225,41.751 -95.962,56.299c-14.223,-5.632 -27.879,-11.96 -40.632,-18.829c-3.648,-1.964 -8.194,-0.599 -10.16,3.046c-1.964,3.647 -0.6,8.196 3.047,10.16c14.106,7.598 29.258,14.552 45.033,20.67c1.744,0.677 3.68,0.677 5.424,0c44.776,-17.366 83.254,-40.945 114.422,-70.109c4.824,0.311 9.365,0.624 13.6,0.932c-1.264,13.547 -5.62,27.11 -5.671,27.266c-0.7,2.152 -0.392,4.506 0.842,6.405c1.232,1.899 3.257,3.139 5.508,3.375c19.832,2.08 39.533,2.773 57,2.772c33.855,0 59.296,-2.606 60.884,-2.772c4.063,-0.426 7.039,-4.027 6.69,-8.098c-0.137,-1.598 -3.329,-36.642 -20.774,-59.131zm-475.209,52.984c1.964,-11.786 7.274,-34.747 20.084,-47.713c2.887,-2.921 2.887,-7.621 0,-10.542c-12.78,-12.937 -18.096,-35.824 -20.07,-47.631c7.969,-0.521 21.478,-1.181 37.778,-1.084c4.361,22.018 12.054,52.382 25.153,83.021c1.302,3.044 4.453,4.875 7.734,4.505c0.244,-0.027 8.748,-0.969 23.655,-2.199c0.738,8.106 2.406,16.029 3.851,21.807c-41.461,3.484 -81.766,1.117 -98.185,-0.164zm239.995,-6.601c-13.868,-6.113 -26.985,-12.965 -39.216,-20.479c24.76,-0.569 53.677,-0.569 78.437,0c-12.231,7.514 -25.35,14.366 -39.221,20.479zm0,-35.91c-81.865,0 -146.497,5.719 -165.381,7.583c-16.957,-41.596 -23.882,-82.684 -26.146,-99.153c23.746,-1.923 99.772,-7.43 191.527,-7.43s167.785,5.507 191.531,7.43c-2.257,16.453 -9.164,57.494 -26.151,99.153c-18.884,-1.865 -83.515,-7.583 -165.38,-7.583zm141.839,42.675c1.445,-5.777 3.113,-13.699 3.851,-21.804c14.889,1.229 23.382,2.169 23.626,2.197c0.282,0.032 0.562,0.047 0.841,0.047c2.974,0 5.703,-1.769 6.894,-4.552c13.1,-30.639 20.793,-61.003 25.154,-83.022c16.3,-0.099 29.836,0.565 37.816,1.087c-1.96,11.795 -7.256,34.647 -20.08,47.629c-2.887,2.921 -2.887,7.621 0,10.542c12.811,12.968 18.121,35.932 20.085,47.714c-16.412,1.282 -56.69,3.651 -98.187,0.162z"
    />
    <path
      d="m328.307,189.736c-0.912,-2.846 -3.426,-4.878 -6.399,-5.174c-0.694,-0.069 -16.254,-1.597 -39.791,-2.423c-10.28,-26.697 -19.235,-46.025 -19.329,-46.229c-2.555,-5.73 -11.049,-5.729 -13.604,0c-0.094,0.203 -9.018,19.461 -19.274,46.086c-13.993,0.449 -27.378,1.311 -39.854,2.566c-2.972,0.299 -5.482,2.333 -6.393,5.178c-0.91,2.844 -0.045,5.958 2.201,7.926c8.486,7.436 18.549,15.477 29.96,23.946c-5.379,16.638 -9.616,32.056 -12.613,45.903c-1.451,6.253 5.617,11.381 11.11,8.064c0.192,-0.112 18.437,-10.782 41.665,-26.042c23.228,15.26 41.472,25.93 41.663,26.042c2.564,1.496 5.775,1.342 8.186,-0.408c2.406,-1.746 3.554,-4.75 2.925,-7.656c-2.995,-13.846 -7.232,-29.265 -12.612,-45.904c11.411,-8.469 21.474,-16.511 29.96,-23.946c2.247,-1.968 3.112,-5.083 2.199,-7.929zm-45.399,22.997c-2.636,1.923 -3.726,5.329 -2.696,8.424c3.771,11.344 7.014,22.118 9.693,32.209c-7.938,-4.906 -18.358,-11.487 -29.771,-19.064c-2.514,-1.669 -5.783,-1.669 -8.297,0c-11.413,7.577 -21.833,14.158 -29.771,19.064c2.68,-10.091 5.922,-20.866 9.693,-32.209c1.029,-3.096 -0.061,-6.501 -2.696,-8.424c-6.964,-5.083 -13.44,-10.01 -19.379,-14.741c8.259,-0.542 16.827,-0.924 25.631,-1.143c3.05,-0.076 5.749,-1.99 6.829,-4.842c5.164,-13.644 10.095,-25.588 13.842,-34.355c3.756,8.788 8.703,20.772 13.889,34.478c1.075,2.842 3.759,4.754 6.796,4.842c9.819,0.287 18.486,0.718 25.462,1.143c-5.897,4.694 -12.322,9.579 -19.225,14.618z"
      fill="#ff5666"
    />
    <path
      d="m198.303,355.759c-0.109,-4.141 -3.556,-7.384 -7.695,-7.299c-16.722,0.443 -33.7,1.058 -50.465,1.827c-4.138,0.19 -7.338,3.698 -7.148,7.836c0.18,4.144 3.734,7.348 7.836,7.148c16.668,-0.765 33.549,-1.376 50.174,-1.816c4.14,-0.109 7.408,-3.554 7.298,-7.696z"
    />
    <path
      d="m371.882,350.29c-48.884,-2.229 -95.724,-3.094 -143.511,-2.549c-4.142,0.048 -7.46,3.444 -7.412,7.586c0.044,4.144 3.454,7.464 7.586,7.413c47.494,-0.542 94.057,0.319 142.649,2.534c4.101,0.2 7.656,-3.005 7.836,-7.148c0.19,-4.137 -3.011,-7.646 -7.148,-7.836z"
    />
    <path
      d="m337.336,383.933c-55.402,-1.801 -107.249,-1.801 -162.646,-0.002c-4.141,0.135 -7.387,3.601 -7.252,7.741c0.136,4.14 3.605,7.375 7.74,7.251c55.073,-1.789 106.592,-1.788 161.668,0.002c4.113,0.143 7.613,-3.107 7.741,-7.251c0.135,-4.14 -3.112,-7.606 -7.251,-7.741z"
    />
  </g>
</svg>
